<mxfile host="app.diagrams.net" modified="2021-01-26T03:14:58.348Z" agent="5.0 (Macintosh; Intel Mac OS X 11_1_0) AppleWebKit/537.36 (KHTML, like Gecko) Chrome/88.0.4324.96 Safari/537.36" etag="MjRB5zwMAnFawwX1FpBS" version="13.10.8" type="github">
  <diagram id="ZTTzLVGqZUzY3PQwYkwi" name="Page-1">
    <mxGraphModel dx="1351" dy="923" grid="1" gridSize="10" guides="1" tooltips="1" connect="1" arrows="1" fold="1" page="1" pageScale="1" pageWidth="827" pageHeight="1169" background="#E6E6E6" math="0" shadow="0">
      <root>
        <mxCell id="0" />
        <mxCell id="1" parent="0" />
        <mxCell id="rtizMYBKSLq8vMq1UdSF-3" style="edgeStyle=orthogonalEdgeStyle;orthogonalLoop=1;jettySize=auto;html=1;exitX=1;exitY=0.5;exitDx=0;exitDy=0;exitPerimeter=0;entryX=0;entryY=0.25;entryDx=0;entryDy=0;entryPerimeter=0;jumpStyle=arc;rounded=0;endArrow=none;endFill=0;fillColor=#e51400;strokeColor=#B20000;" edge="1" parent="1" source="rtizMYBKSLq8vMq1UdSF-1" target="rtizMYBKSLq8vMq1UdSF-2">
          <mxGeometry relative="1" as="geometry" />
        </mxCell>
        <mxCell id="rtizMYBKSLq8vMq1UdSF-19" value="1" style="edgeLabel;html=1;align=center;verticalAlign=middle;resizable=0;points=[];" vertex="1" connectable="0" parent="rtizMYBKSLq8vMq1UdSF-3">
          <mxGeometry x="-0.773" y="3" relative="1" as="geometry">
            <mxPoint as="offset" />
          </mxGeometry>
        </mxCell>
        <mxCell id="rtizMYBKSLq8vMq1UdSF-7" style="edgeStyle=orthogonalEdgeStyle;orthogonalLoop=1;jettySize=auto;html=1;exitX=0;exitY=0.25;exitDx=0;exitDy=0;exitPerimeter=0;jumpStyle=arc;rounded=0;endArrow=none;endFill=0;" edge="1" parent="1" source="rtizMYBKSLq8vMq1UdSF-1">
          <mxGeometry relative="1" as="geometry">
            <mxPoint x="595" y="310" as="targetPoint" />
            <Array as="points">
              <mxPoint x="215" y="140" />
              <mxPoint x="595" y="140" />
            </Array>
          </mxGeometry>
        </mxCell>
        <mxCell id="rtizMYBKSLq8vMq1UdSF-18" value="0" style="edgeLabel;html=1;align=center;verticalAlign=middle;resizable=0;points=[];" vertex="1" connectable="0" parent="rtizMYBKSLq8vMq1UdSF-7">
          <mxGeometry x="-0.8264" y="-2" relative="1" as="geometry">
            <mxPoint as="offset" />
          </mxGeometry>
        </mxCell>
        <mxCell id="rtizMYBKSLq8vMq1UdSF-9" style="edgeStyle=orthogonalEdgeStyle;orthogonalLoop=1;jettySize=auto;html=1;exitX=0;exitY=0.75;exitDx=0;exitDy=0;exitPerimeter=0;jumpStyle=arc;rounded=0;endArrow=none;endFill=0;fillColor=#e51400;strokeColor=#B20000;" edge="1" parent="1" source="rtizMYBKSLq8vMq1UdSF-1">
          <mxGeometry relative="1" as="geometry">
            <mxPoint x="105" y="265" as="targetPoint" />
          </mxGeometry>
        </mxCell>
        <mxCell id="rtizMYBKSLq8vMq1UdSF-16" value="1" style="edgeLabel;html=1;align=center;verticalAlign=middle;resizable=0;points=[];" vertex="1" connectable="0" parent="rtizMYBKSLq8vMq1UdSF-9">
          <mxGeometry x="0.1273" relative="1" as="geometry">
            <mxPoint as="offset" />
          </mxGeometry>
        </mxCell>
        <mxCell id="rtizMYBKSLq8vMq1UdSF-1" value="" style="verticalLabelPosition=bottom;shadow=0;dashed=0;align=center;html=1;verticalAlign=top;shape=mxgraph.electrical.logic_gates.logic_gate;operation=or;fillColor=#ffe6cc;strokeColor=#d79b00;" vertex="1" parent="1">
          <mxGeometry x="215" y="220" width="100" height="60" as="geometry" />
        </mxCell>
        <mxCell id="rtizMYBKSLq8vMq1UdSF-6" style="edgeStyle=orthogonalEdgeStyle;orthogonalLoop=1;jettySize=auto;html=1;exitX=1;exitY=0.5;exitDx=0;exitDy=0;exitPerimeter=0;jumpStyle=arc;rounded=0;endArrow=none;endFill=0;" edge="1" parent="1" source="rtizMYBKSLq8vMq1UdSF-2">
          <mxGeometry relative="1" as="geometry">
            <mxPoint x="725" y="310" as="targetPoint" />
          </mxGeometry>
        </mxCell>
        <mxCell id="rtizMYBKSLq8vMq1UdSF-21" value="0" style="edgeLabel;html=1;align=center;verticalAlign=middle;resizable=0;points=[];" vertex="1" connectable="0" parent="rtizMYBKSLq8vMq1UdSF-6">
          <mxGeometry x="-0.8588" relative="1" as="geometry">
            <mxPoint as="offset" />
          </mxGeometry>
        </mxCell>
        <mxCell id="rtizMYBKSLq8vMq1UdSF-2" value="" style="verticalLabelPosition=bottom;shadow=0;dashed=0;align=center;html=1;verticalAlign=top;shape=mxgraph.electrical.logic_gates.logic_gate;operation=and;fillColor=#dae8fc;strokeColor=#6c8ebf;" vertex="1" parent="1">
          <mxGeometry x="65" y="220.00000000000003" width="100" height="60" as="geometry" />
        </mxCell>
        <mxCell id="rtizMYBKSLq8vMq1UdSF-5" style="edgeStyle=orthogonalEdgeStyle;orthogonalLoop=1;jettySize=auto;html=1;exitX=1;exitY=0.5;exitDx=0;exitDy=0;entryX=0;entryY=0.75;entryDx=0;entryDy=0;entryPerimeter=0;jumpStyle=arc;rounded=0;endArrow=none;endFill=0;" edge="1" parent="1" source="rtizMYBKSLq8vMq1UdSF-4" target="rtizMYBKSLq8vMq1UdSF-2">
          <mxGeometry relative="1" as="geometry" />
        </mxCell>
        <mxCell id="rtizMYBKSLq8vMq1UdSF-20" value="0" style="edgeLabel;html=1;align=center;verticalAlign=middle;resizable=0;points=[];" vertex="1" connectable="0" parent="rtizMYBKSLq8vMq1UdSF-5">
          <mxGeometry x="-0.4737" y="-1" relative="1" as="geometry">
            <mxPoint as="offset" />
          </mxGeometry>
        </mxCell>
        <mxCell id="rtizMYBKSLq8vMq1UdSF-8" style="edgeStyle=orthogonalEdgeStyle;orthogonalLoop=1;jettySize=auto;html=1;exitX=0;exitY=0.5;exitDx=0;exitDy=0;jumpStyle=arc;rounded=0;endArrow=none;endFill=0;fillColor=#e51400;strokeColor=#B20000;" edge="1" parent="1" source="rtizMYBKSLq8vMq1UdSF-4">
          <mxGeometry relative="1" as="geometry">
            <mxPoint x="115" y="350" as="targetPoint" />
          </mxGeometry>
        </mxCell>
        <mxCell id="rtizMYBKSLq8vMq1UdSF-17" value="1" style="edgeLabel;html=1;align=center;verticalAlign=middle;resizable=0;points=[];" vertex="1" connectable="0" parent="rtizMYBKSLq8vMq1UdSF-8">
          <mxGeometry x="0.1412" y="1" relative="1" as="geometry">
            <mxPoint as="offset" />
          </mxGeometry>
        </mxCell>
        <mxCell id="rtizMYBKSLq8vMq1UdSF-4" value="" style="verticalLabelPosition=bottom;shadow=0;dashed=0;align=center;html=1;verticalAlign=top;shape=mxgraph.electrical.logic_gates.buffer2;negating=1;fillColor=#d5e8d4;strokeColor=#82b366;" vertex="1" parent="1">
          <mxGeometry x="285" y="320" width="100" height="60" as="geometry" />
        </mxCell>
        <mxCell id="rtizMYBKSLq8vMq1UdSF-12" value="Output" style="text;html=1;align=center;verticalAlign=middle;resizable=0;points=[];autosize=1;" vertex="1" parent="1">
          <mxGeometry x="720" y="300" width="50" height="20" as="geometry" />
        </mxCell>
        <mxCell id="rtizMYBKSLq8vMq1UdSF-13" value="&lt;span style=&quot;font-size: 11px ; background-color: rgb(255 , 255 , 255)&quot;&gt;Reset&lt;/span&gt;" style="text;html=1;align=center;verticalAlign=middle;resizable=0;points=[];autosize=1;" vertex="1" parent="1">
          <mxGeometry x="85" y="340" width="40" height="20" as="geometry" />
        </mxCell>
        <mxCell id="rtizMYBKSLq8vMq1UdSF-15" value="set" style="text;html=1;align=center;verticalAlign=middle;resizable=0;points=[];autosize=1;" vertex="1" parent="1">
          <mxGeometry x="80" y="250" width="30" height="20" as="geometry" />
        </mxCell>
        <mxCell id="rtizMYBKSLq8vMq1UdSF-22" value="AND-OR LATCH&lt;br style=&quot;font-size: 30px;&quot;&gt;" style="text;html=1;align=center;verticalAlign=middle;resizable=0;points=[];autosize=1;fontSize=30;fontColor=#FF0000;fontStyle=4" vertex="1" parent="1">
          <mxGeometry x="235" y="80" width="240" height="40" as="geometry" />
        </mxCell>
        <mxCell id="rtizMYBKSLq8vMq1UdSF-23" value="GATED LATCH" style="text;html=1;align=center;verticalAlign=middle;resizable=0;points=[];autosize=1;fontSize=30;fontColor=#FF0000;fontStyle=4" vertex="1" parent="1">
          <mxGeometry x="245" y="450" width="220" height="40" as="geometry" />
        </mxCell>
        <mxCell id="rtizMYBKSLq8vMq1UdSF-37" value="0" style="edgeStyle=elbowEdgeStyle;rounded=0;orthogonalLoop=1;jettySize=auto;html=1;exitX=0;exitY=0.25;exitDx=0;exitDy=0;exitPerimeter=0;elbow=vertical;endArrow=none;endFill=0;" edge="1" parent="1" source="rtizMYBKSLq8vMq1UdSF-25">
          <mxGeometry relative="1" as="geometry">
            <mxPoint x="720" y="640" as="targetPoint" />
            <Array as="points">
              <mxPoint x="560" y="520" />
            </Array>
          </mxGeometry>
        </mxCell>
        <mxCell id="rtizMYBKSLq8vMq1UdSF-25" value="" style="verticalLabelPosition=bottom;shadow=0;dashed=0;align=center;html=1;verticalAlign=top;shape=mxgraph.electrical.logic_gates.logic_gate;operation=or;fillColor=#ffe6cc;strokeColor=#d79b00;" vertex="1" parent="1">
          <mxGeometry x="414" y="550" width="100" height="60" as="geometry" />
        </mxCell>
        <mxCell id="rtizMYBKSLq8vMq1UdSF-31" value="1" style="edgeStyle=orthogonalEdgeStyle;rounded=0;orthogonalLoop=1;jettySize=auto;html=1;exitX=0;exitY=0.25;exitDx=0;exitDy=0;exitPerimeter=0;entryX=1;entryY=0.5;entryDx=0;entryDy=0;entryPerimeter=0;endArrow=none;endFill=0;fillColor=#e51400;strokeColor=#B20000;" edge="1" parent="1" source="rtizMYBKSLq8vMq1UdSF-26" target="rtizMYBKSLq8vMq1UdSF-25">
          <mxGeometry relative="1" as="geometry" />
        </mxCell>
        <mxCell id="rtizMYBKSLq8vMq1UdSF-32" value="1" style="edgeStyle=orthogonalEdgeStyle;rounded=0;orthogonalLoop=1;jettySize=auto;html=1;exitX=0;exitY=0.75;exitDx=0;exitDy=0;exitPerimeter=0;entryX=0.91;entryY=0.5;entryDx=0;entryDy=0;entryPerimeter=0;endArrow=none;endFill=0;fillColor=#e51400;strokeColor=#B20000;" edge="1" parent="1" source="rtizMYBKSLq8vMq1UdSF-26" target="rtizMYBKSLq8vMq1UdSF-27">
          <mxGeometry relative="1" as="geometry" />
        </mxCell>
        <mxCell id="rtizMYBKSLq8vMq1UdSF-36" value="1" style="edgeStyle=orthogonalEdgeStyle;rounded=0;orthogonalLoop=1;jettySize=auto;html=1;exitX=1;exitY=0.5;exitDx=0;exitDy=0;exitPerimeter=0;endArrow=none;endFill=0;fillColor=#e51400;strokeColor=#B20000;" edge="1" parent="1" source="rtizMYBKSLq8vMq1UdSF-26">
          <mxGeometry relative="1" as="geometry">
            <mxPoint x="760" y="640" as="targetPoint" />
          </mxGeometry>
        </mxCell>
        <mxCell id="rtizMYBKSLq8vMq1UdSF-26" value="" style="verticalLabelPosition=bottom;shadow=0;dashed=0;align=center;html=1;verticalAlign=top;shape=mxgraph.electrical.logic_gates.logic_gate;operation=and;fillColor=#dae8fc;strokeColor=#6c8ebf;" vertex="1" parent="1">
          <mxGeometry x="555" y="610" width="100" height="60" as="geometry" />
        </mxCell>
        <mxCell id="rtizMYBKSLq8vMq1UdSF-33" value="0" style="edgeStyle=orthogonalEdgeStyle;rounded=0;orthogonalLoop=1;jettySize=auto;html=1;exitX=0;exitY=0.5;exitDx=0;exitDy=0;entryX=1;entryY=0.5;entryDx=0;entryDy=0;entryPerimeter=0;endArrow=none;endFill=0;" edge="1" parent="1" source="rtizMYBKSLq8vMq1UdSF-27" target="rtizMYBKSLq8vMq1UdSF-29">
          <mxGeometry relative="1" as="geometry" />
        </mxCell>
        <mxCell id="rtizMYBKSLq8vMq1UdSF-27" value="" style="verticalLabelPosition=bottom;shadow=0;dashed=0;align=center;html=1;verticalAlign=top;shape=mxgraph.electrical.logic_gates.buffer2;negating=1;fillColor=#d5e8d4;strokeColor=#82b366;" vertex="1" parent="1">
          <mxGeometry x="405" y="650" width="100" height="60" as="geometry" />
        </mxCell>
        <mxCell id="rtizMYBKSLq8vMq1UdSF-38" value="1" style="edgeStyle=orthogonalEdgeStyle;rounded=0;orthogonalLoop=1;jettySize=auto;html=1;exitX=1;exitY=0.5;exitDx=0;exitDy=0;exitPerimeter=0;entryX=0;entryY=0.75;entryDx=0;entryDy=0;entryPerimeter=0;endArrow=none;endFill=0;fillColor=#e51400;strokeColor=#B20000;" edge="1" parent="1" source="rtizMYBKSLq8vMq1UdSF-28" target="rtizMYBKSLq8vMq1UdSF-25">
          <mxGeometry relative="1" as="geometry" />
        </mxCell>
        <mxCell id="rtizMYBKSLq8vMq1UdSF-42" style="edgeStyle=orthogonalEdgeStyle;rounded=0;orthogonalLoop=1;jettySize=auto;html=1;exitX=0;exitY=0.75;exitDx=0;exitDy=0;exitPerimeter=0;endArrow=none;endFill=0;" edge="1" parent="1" source="rtizMYBKSLq8vMq1UdSF-28">
          <mxGeometry relative="1" as="geometry">
            <mxPoint x="130" y="700" as="targetPoint" />
          </mxGeometry>
        </mxCell>
        <mxCell id="rtizMYBKSLq8vMq1UdSF-44" value="1" style="edgeStyle=orthogonalEdgeStyle;rounded=0;orthogonalLoop=1;jettySize=auto;html=1;exitX=0;exitY=0.25;exitDx=0;exitDy=0;exitPerimeter=0;endArrow=none;endFill=0;fillColor=#e51400;strokeColor=#B20000;" edge="1" parent="1" source="rtizMYBKSLq8vMq1UdSF-28">
          <mxGeometry relative="1" as="geometry">
            <mxPoint x="80" y="570" as="targetPoint" />
          </mxGeometry>
        </mxCell>
        <mxCell id="rtizMYBKSLq8vMq1UdSF-28" value="" style="verticalLabelPosition=bottom;shadow=0;dashed=0;align=center;html=1;verticalAlign=top;shape=mxgraph.electrical.logic_gates.logic_gate;operation=and;fillColor=#dae8fc;strokeColor=#6c8ebf;" vertex="1" parent="1">
          <mxGeometry x="299" y="555" width="100" height="60" as="geometry" />
        </mxCell>
        <mxCell id="rtizMYBKSLq8vMq1UdSF-43" value="1" style="edgeStyle=orthogonalEdgeStyle;rounded=0;orthogonalLoop=1;jettySize=auto;html=1;exitX=0;exitY=0.75;exitDx=0;exitDy=0;exitPerimeter=0;endArrow=none;endFill=0;fillColor=#e51400;strokeColor=#B20000;" edge="1" parent="1" source="rtizMYBKSLq8vMq1UdSF-29">
          <mxGeometry relative="1" as="geometry">
            <mxPoint x="80" y="695" as="targetPoint" />
          </mxGeometry>
        </mxCell>
        <mxCell id="rtizMYBKSLq8vMq1UdSF-45" value="0" style="edgeStyle=elbowEdgeStyle;rounded=0;jumpStyle=arc;orthogonalLoop=1;jettySize=auto;elbow=vertical;html=1;exitX=0;exitY=0.25;exitDx=0;exitDy=0;exitPerimeter=0;entryX=1;entryY=0.5;entryDx=0;entryDy=0;endArrow=none;endFill=0;" edge="1" parent="1" source="rtizMYBKSLq8vMq1UdSF-29" target="rtizMYBKSLq8vMq1UdSF-30">
          <mxGeometry relative="1" as="geometry">
            <Array as="points">
              <mxPoint x="280" y="645" />
            </Array>
          </mxGeometry>
        </mxCell>
        <mxCell id="rtizMYBKSLq8vMq1UdSF-29" value="" style="verticalLabelPosition=bottom;shadow=0;dashed=0;align=center;html=1;verticalAlign=top;shape=mxgraph.electrical.logic_gates.logic_gate;operation=and;fillColor=#dae8fc;strokeColor=#6c8ebf;" vertex="1" parent="1">
          <mxGeometry x="290" y="650" width="100" height="60" as="geometry" />
        </mxCell>
        <mxCell id="rtizMYBKSLq8vMq1UdSF-41" style="edgeStyle=orthogonalEdgeStyle;rounded=0;orthogonalLoop=1;jettySize=auto;html=1;exitX=0;exitY=0.5;exitDx=0;exitDy=0;endArrow=none;endFill=0;" edge="1" parent="1" source="rtizMYBKSLq8vMq1UdSF-30">
          <mxGeometry relative="1" as="geometry">
            <mxPoint x="160" y="570" as="targetPoint" />
            <Array as="points">
              <mxPoint x="150" y="645" />
              <mxPoint x="150" y="593" />
              <mxPoint x="160" y="593" />
            </Array>
          </mxGeometry>
        </mxCell>
        <mxCell id="rtizMYBKSLq8vMq1UdSF-30" value="" style="verticalLabelPosition=bottom;shadow=0;dashed=0;align=center;html=1;verticalAlign=top;shape=mxgraph.electrical.logic_gates.buffer2;negating=1;fillColor=#d5e8d4;strokeColor=#82b366;" vertex="1" parent="1">
          <mxGeometry x="170" y="615" width="100" height="60" as="geometry" />
        </mxCell>
        <mxCell id="rtizMYBKSLq8vMq1UdSF-46" value="Data Input" style="text;html=1;align=center;verticalAlign=middle;resizable=0;points=[];autosize=1;" vertex="1" parent="1">
          <mxGeometry x="10" y="555" width="70" height="20" as="geometry" />
        </mxCell>
        <mxCell id="rtizMYBKSLq8vMq1UdSF-47" value="Write Enable" style="text;html=1;align=center;verticalAlign=middle;resizable=0;points=[];autosize=1;" vertex="1" parent="1">
          <mxGeometry x="5" y="690" width="80" height="20" as="geometry" />
        </mxCell>
        <mxCell id="rtizMYBKSLq8vMq1UdSF-48" value="Output" style="text;html=1;align=center;verticalAlign=middle;resizable=0;points=[];autosize=1;" vertex="1" parent="1">
          <mxGeometry x="760" y="630" width="50" height="20" as="geometry" />
        </mxCell>
        <mxCell id="rtizMYBKSLq8vMq1UdSF-52" value="8-Bit Register" style="text;html=1;align=center;verticalAlign=middle;resizable=0;points=[];autosize=1;fontSize=30;fontColor=#FF0000;fontStyle=4" vertex="1" parent="1">
          <mxGeometry x="255" y="730" width="200" height="40" as="geometry" />
        </mxCell>
        <mxCell id="rtizMYBKSLq8vMq1UdSF-82" value="" style="group" vertex="1" connectable="0" parent="1">
          <mxGeometry x="130" y="850" width="80" height="180" as="geometry" />
        </mxCell>
        <mxCell id="rtizMYBKSLq8vMq1UdSF-83" style="edgeStyle=elbowEdgeStyle;rounded=0;jumpStyle=arc;orthogonalLoop=1;jettySize=auto;elbow=vertical;html=1;exitX=0.25;exitY=0;exitDx=0;exitDy=0;endArrow=none;endFill=0;" edge="1" parent="rtizMYBKSLq8vMq1UdSF-82" source="rtizMYBKSLq8vMq1UdSF-86">
          <mxGeometry relative="1" as="geometry">
            <mxPoint x="20" as="targetPoint" />
          </mxGeometry>
        </mxCell>
        <mxCell id="rtizMYBKSLq8vMq1UdSF-84" style="edgeStyle=elbowEdgeStyle;rounded=0;jumpStyle=arc;orthogonalLoop=1;jettySize=auto;elbow=vertical;html=1;exitX=0.25;exitY=1;exitDx=0;exitDy=0;endArrow=none;endFill=0;" edge="1" parent="rtizMYBKSLq8vMq1UdSF-82" source="rtizMYBKSLq8vMq1UdSF-86">
          <mxGeometry relative="1" as="geometry">
            <mxPoint x="20" y="180" as="targetPoint" />
          </mxGeometry>
        </mxCell>
        <mxCell id="rtizMYBKSLq8vMq1UdSF-85" style="edgeStyle=elbowEdgeStyle;rounded=0;jumpStyle=arc;orthogonalLoop=1;jettySize=auto;elbow=vertical;html=1;exitX=0.75;exitY=1;exitDx=0;exitDy=0;endArrow=none;endFill=0;" edge="1" parent="rtizMYBKSLq8vMq1UdSF-82" source="rtizMYBKSLq8vMq1UdSF-86">
          <mxGeometry relative="1" as="geometry">
            <mxPoint x="60" y="130" as="targetPoint" />
          </mxGeometry>
        </mxCell>
        <mxCell id="rtizMYBKSLq8vMq1UdSF-86" value="" style="rounded=0;whiteSpace=wrap;html=1;" vertex="1" parent="rtizMYBKSLq8vMq1UdSF-82">
          <mxGeometry y="30" width="80" height="60" as="geometry" />
        </mxCell>
        <mxCell id="rtizMYBKSLq8vMq1UdSF-87" value="Q" style="text;html=1;align=center;verticalAlign=middle;resizable=0;points=[];autosize=1;" vertex="1" parent="rtizMYBKSLq8vMq1UdSF-82">
          <mxGeometry y="30" width="20" height="20" as="geometry" />
        </mxCell>
        <mxCell id="rtizMYBKSLq8vMq1UdSF-88" value="D" style="text;html=1;align=center;verticalAlign=middle;resizable=0;points=[];autosize=1;" vertex="1" parent="rtizMYBKSLq8vMq1UdSF-82">
          <mxGeometry y="70" width="20" height="20" as="geometry" />
        </mxCell>
        <mxCell id="rtizMYBKSLq8vMq1UdSF-89" value="E" style="text;html=1;align=center;verticalAlign=middle;resizable=0;points=[];autosize=1;" vertex="1" parent="rtizMYBKSLq8vMq1UdSF-82">
          <mxGeometry x="60" y="70" width="20" height="20" as="geometry" />
        </mxCell>
        <mxCell id="rtizMYBKSLq8vMq1UdSF-98" value="" style="group" vertex="1" connectable="0" parent="1">
          <mxGeometry x="515" y="850" width="80" height="180" as="geometry" />
        </mxCell>
        <mxCell id="rtizMYBKSLq8vMq1UdSF-99" style="edgeStyle=elbowEdgeStyle;rounded=0;jumpStyle=arc;orthogonalLoop=1;jettySize=auto;elbow=vertical;html=1;exitX=0.25;exitY=0;exitDx=0;exitDy=0;endArrow=none;endFill=0;" edge="1" parent="rtizMYBKSLq8vMq1UdSF-98" source="rtizMYBKSLq8vMq1UdSF-102">
          <mxGeometry relative="1" as="geometry">
            <mxPoint x="20" as="targetPoint" />
          </mxGeometry>
        </mxCell>
        <mxCell id="rtizMYBKSLq8vMq1UdSF-100" style="edgeStyle=elbowEdgeStyle;rounded=0;jumpStyle=arc;orthogonalLoop=1;jettySize=auto;elbow=vertical;html=1;exitX=0.25;exitY=1;exitDx=0;exitDy=0;endArrow=none;endFill=0;" edge="1" parent="rtizMYBKSLq8vMq1UdSF-98" source="rtizMYBKSLq8vMq1UdSF-102">
          <mxGeometry relative="1" as="geometry">
            <mxPoint x="20" y="180" as="targetPoint" />
          </mxGeometry>
        </mxCell>
        <mxCell id="rtizMYBKSLq8vMq1UdSF-101" style="edgeStyle=elbowEdgeStyle;rounded=0;jumpStyle=arc;orthogonalLoop=1;jettySize=auto;elbow=vertical;html=1;exitX=0.75;exitY=1;exitDx=0;exitDy=0;endArrow=none;endFill=0;" edge="1" parent="rtizMYBKSLq8vMq1UdSF-98" source="rtizMYBKSLq8vMq1UdSF-102">
          <mxGeometry relative="1" as="geometry">
            <mxPoint x="60" y="130" as="targetPoint" />
          </mxGeometry>
        </mxCell>
        <mxCell id="rtizMYBKSLq8vMq1UdSF-102" value="" style="rounded=0;whiteSpace=wrap;html=1;" vertex="1" parent="rtizMYBKSLq8vMq1UdSF-98">
          <mxGeometry y="30" width="80" height="60" as="geometry" />
        </mxCell>
        <mxCell id="rtizMYBKSLq8vMq1UdSF-103" value="Q" style="text;html=1;align=center;verticalAlign=middle;resizable=0;points=[];autosize=1;" vertex="1" parent="rtizMYBKSLq8vMq1UdSF-98">
          <mxGeometry y="30" width="20" height="20" as="geometry" />
        </mxCell>
        <mxCell id="rtizMYBKSLq8vMq1UdSF-104" value="D" style="text;html=1;align=center;verticalAlign=middle;resizable=0;points=[];autosize=1;" vertex="1" parent="rtizMYBKSLq8vMq1UdSF-98">
          <mxGeometry y="70" width="20" height="20" as="geometry" />
        </mxCell>
        <mxCell id="rtizMYBKSLq8vMq1UdSF-105" value="E" style="text;html=1;align=center;verticalAlign=middle;resizable=0;points=[];autosize=1;" vertex="1" parent="rtizMYBKSLq8vMq1UdSF-98">
          <mxGeometry x="60" y="70" width="20" height="20" as="geometry" />
        </mxCell>
        <mxCell id="rtizMYBKSLq8vMq1UdSF-106" value="" style="group" vertex="1" connectable="0" parent="1">
          <mxGeometry x="420" y="850" width="80" height="180" as="geometry" />
        </mxCell>
        <mxCell id="rtizMYBKSLq8vMq1UdSF-107" style="edgeStyle=elbowEdgeStyle;rounded=0;jumpStyle=arc;orthogonalLoop=1;jettySize=auto;elbow=vertical;html=1;exitX=0.25;exitY=0;exitDx=0;exitDy=0;endArrow=none;endFill=0;" edge="1" parent="rtizMYBKSLq8vMq1UdSF-106" source="rtizMYBKSLq8vMq1UdSF-110">
          <mxGeometry relative="1" as="geometry">
            <mxPoint x="20" as="targetPoint" />
          </mxGeometry>
        </mxCell>
        <mxCell id="rtizMYBKSLq8vMq1UdSF-108" style="edgeStyle=elbowEdgeStyle;rounded=0;jumpStyle=arc;orthogonalLoop=1;jettySize=auto;elbow=vertical;html=1;exitX=0.25;exitY=1;exitDx=0;exitDy=0;endArrow=none;endFill=0;" edge="1" parent="rtizMYBKSLq8vMq1UdSF-106" source="rtizMYBKSLq8vMq1UdSF-110">
          <mxGeometry relative="1" as="geometry">
            <mxPoint x="20" y="180" as="targetPoint" />
          </mxGeometry>
        </mxCell>
        <mxCell id="rtizMYBKSLq8vMq1UdSF-109" style="edgeStyle=elbowEdgeStyle;rounded=0;jumpStyle=arc;orthogonalLoop=1;jettySize=auto;elbow=vertical;html=1;exitX=0.75;exitY=1;exitDx=0;exitDy=0;endArrow=none;endFill=0;" edge="1" parent="rtizMYBKSLq8vMq1UdSF-106" source="rtizMYBKSLq8vMq1UdSF-110">
          <mxGeometry relative="1" as="geometry">
            <mxPoint x="60" y="130" as="targetPoint" />
          </mxGeometry>
        </mxCell>
        <mxCell id="rtizMYBKSLq8vMq1UdSF-110" value="" style="rounded=0;whiteSpace=wrap;html=1;" vertex="1" parent="rtizMYBKSLq8vMq1UdSF-106">
          <mxGeometry y="30" width="80" height="60" as="geometry" />
        </mxCell>
        <mxCell id="rtizMYBKSLq8vMq1UdSF-111" value="Q" style="text;html=1;align=center;verticalAlign=middle;resizable=0;points=[];autosize=1;" vertex="1" parent="rtizMYBKSLq8vMq1UdSF-106">
          <mxGeometry y="30" width="20" height="20" as="geometry" />
        </mxCell>
        <mxCell id="rtizMYBKSLq8vMq1UdSF-112" value="D" style="text;html=1;align=center;verticalAlign=middle;resizable=0;points=[];autosize=1;" vertex="1" parent="rtizMYBKSLq8vMq1UdSF-106">
          <mxGeometry y="70" width="20" height="20" as="geometry" />
        </mxCell>
        <mxCell id="rtizMYBKSLq8vMq1UdSF-113" value="E" style="text;html=1;align=center;verticalAlign=middle;resizable=0;points=[];autosize=1;" vertex="1" parent="rtizMYBKSLq8vMq1UdSF-106">
          <mxGeometry x="60" y="70" width="20" height="20" as="geometry" />
        </mxCell>
        <mxCell id="rtizMYBKSLq8vMq1UdSF-114" value="" style="group" vertex="1" connectable="0" parent="1">
          <mxGeometry x="325" y="850" width="80" height="180" as="geometry" />
        </mxCell>
        <mxCell id="rtizMYBKSLq8vMq1UdSF-115" style="edgeStyle=elbowEdgeStyle;rounded=0;jumpStyle=arc;orthogonalLoop=1;jettySize=auto;elbow=vertical;html=1;exitX=0.25;exitY=0;exitDx=0;exitDy=0;endArrow=none;endFill=0;" edge="1" parent="rtizMYBKSLq8vMq1UdSF-114" source="rtizMYBKSLq8vMq1UdSF-118">
          <mxGeometry relative="1" as="geometry">
            <mxPoint x="20" as="targetPoint" />
          </mxGeometry>
        </mxCell>
        <mxCell id="rtizMYBKSLq8vMq1UdSF-116" style="edgeStyle=elbowEdgeStyle;rounded=0;jumpStyle=arc;orthogonalLoop=1;jettySize=auto;elbow=vertical;html=1;exitX=0.25;exitY=1;exitDx=0;exitDy=0;endArrow=none;endFill=0;" edge="1" parent="rtizMYBKSLq8vMq1UdSF-114" source="rtizMYBKSLq8vMq1UdSF-118">
          <mxGeometry relative="1" as="geometry">
            <mxPoint x="20" y="180" as="targetPoint" />
          </mxGeometry>
        </mxCell>
        <mxCell id="rtizMYBKSLq8vMq1UdSF-117" style="edgeStyle=elbowEdgeStyle;rounded=0;jumpStyle=arc;orthogonalLoop=1;jettySize=auto;elbow=vertical;html=1;exitX=0.75;exitY=1;exitDx=0;exitDy=0;endArrow=none;endFill=0;" edge="1" parent="rtizMYBKSLq8vMq1UdSF-114" source="rtizMYBKSLq8vMq1UdSF-118">
          <mxGeometry relative="1" as="geometry">
            <mxPoint x="60" y="130" as="targetPoint" />
          </mxGeometry>
        </mxCell>
        <mxCell id="rtizMYBKSLq8vMq1UdSF-118" value="" style="rounded=0;whiteSpace=wrap;html=1;" vertex="1" parent="rtizMYBKSLq8vMq1UdSF-114">
          <mxGeometry y="30" width="80" height="60" as="geometry" />
        </mxCell>
        <mxCell id="rtizMYBKSLq8vMq1UdSF-119" value="Q" style="text;html=1;align=center;verticalAlign=middle;resizable=0;points=[];autosize=1;" vertex="1" parent="rtizMYBKSLq8vMq1UdSF-114">
          <mxGeometry y="30" width="20" height="20" as="geometry" />
        </mxCell>
        <mxCell id="rtizMYBKSLq8vMq1UdSF-120" value="D" style="text;html=1;align=center;verticalAlign=middle;resizable=0;points=[];autosize=1;" vertex="1" parent="rtizMYBKSLq8vMq1UdSF-114">
          <mxGeometry y="70" width="20" height="20" as="geometry" />
        </mxCell>
        <mxCell id="rtizMYBKSLq8vMq1UdSF-121" value="E" style="text;html=1;align=center;verticalAlign=middle;resizable=0;points=[];autosize=1;" vertex="1" parent="rtizMYBKSLq8vMq1UdSF-114">
          <mxGeometry x="60" y="70" width="20" height="20" as="geometry" />
        </mxCell>
        <mxCell id="rtizMYBKSLq8vMq1UdSF-122" value="" style="group" vertex="1" connectable="0" parent="1">
          <mxGeometry x="230" y="850" width="80" height="180" as="geometry" />
        </mxCell>
        <mxCell id="rtizMYBKSLq8vMq1UdSF-123" style="edgeStyle=elbowEdgeStyle;rounded=0;jumpStyle=arc;orthogonalLoop=1;jettySize=auto;elbow=vertical;html=1;exitX=0.25;exitY=0;exitDx=0;exitDy=0;endArrow=none;endFill=0;" edge="1" parent="rtizMYBKSLq8vMq1UdSF-122" source="rtizMYBKSLq8vMq1UdSF-126">
          <mxGeometry relative="1" as="geometry">
            <mxPoint x="20" as="targetPoint" />
          </mxGeometry>
        </mxCell>
        <mxCell id="rtizMYBKSLq8vMq1UdSF-124" style="edgeStyle=elbowEdgeStyle;rounded=0;jumpStyle=arc;orthogonalLoop=1;jettySize=auto;elbow=vertical;html=1;exitX=0.25;exitY=1;exitDx=0;exitDy=0;endArrow=none;endFill=0;" edge="1" parent="rtizMYBKSLq8vMq1UdSF-122" source="rtizMYBKSLq8vMq1UdSF-126">
          <mxGeometry relative="1" as="geometry">
            <mxPoint x="20" y="180" as="targetPoint" />
          </mxGeometry>
        </mxCell>
        <mxCell id="rtizMYBKSLq8vMq1UdSF-125" style="edgeStyle=elbowEdgeStyle;rounded=0;jumpStyle=arc;orthogonalLoop=1;jettySize=auto;elbow=vertical;html=1;exitX=0.75;exitY=1;exitDx=0;exitDy=0;endArrow=none;endFill=0;" edge="1" parent="rtizMYBKSLq8vMq1UdSF-122" source="rtizMYBKSLq8vMq1UdSF-126">
          <mxGeometry relative="1" as="geometry">
            <mxPoint x="60" y="130" as="targetPoint" />
          </mxGeometry>
        </mxCell>
        <mxCell id="rtizMYBKSLq8vMq1UdSF-126" value="" style="rounded=0;whiteSpace=wrap;html=1;" vertex="1" parent="rtizMYBKSLq8vMq1UdSF-122">
          <mxGeometry y="30" width="80" height="60" as="geometry" />
        </mxCell>
        <mxCell id="rtizMYBKSLq8vMq1UdSF-127" value="Q" style="text;html=1;align=center;verticalAlign=middle;resizable=0;points=[];autosize=1;" vertex="1" parent="rtizMYBKSLq8vMq1UdSF-122">
          <mxGeometry y="30" width="20" height="20" as="geometry" />
        </mxCell>
        <mxCell id="rtizMYBKSLq8vMq1UdSF-128" value="D" style="text;html=1;align=center;verticalAlign=middle;resizable=0;points=[];autosize=1;" vertex="1" parent="rtizMYBKSLq8vMq1UdSF-122">
          <mxGeometry y="70" width="20" height="20" as="geometry" />
        </mxCell>
        <mxCell id="rtizMYBKSLq8vMq1UdSF-129" value="E" style="text;html=1;align=center;verticalAlign=middle;resizable=0;points=[];autosize=1;" vertex="1" parent="rtizMYBKSLq8vMq1UdSF-122">
          <mxGeometry x="60" y="70" width="20" height="20" as="geometry" />
        </mxCell>
        <mxCell id="rtizMYBKSLq8vMq1UdSF-74" value="" style="group" vertex="1" connectable="0" parent="1">
          <mxGeometry x="700" y="850" width="80" height="180" as="geometry" />
        </mxCell>
        <mxCell id="rtizMYBKSLq8vMq1UdSF-75" style="edgeStyle=elbowEdgeStyle;rounded=0;jumpStyle=arc;orthogonalLoop=1;jettySize=auto;elbow=vertical;html=1;exitX=0.25;exitY=0;exitDx=0;exitDy=0;endArrow=none;endFill=0;" edge="1" parent="rtizMYBKSLq8vMq1UdSF-74" source="rtizMYBKSLq8vMq1UdSF-78">
          <mxGeometry relative="1" as="geometry">
            <mxPoint x="20" as="targetPoint" />
          </mxGeometry>
        </mxCell>
        <mxCell id="rtizMYBKSLq8vMq1UdSF-76" style="edgeStyle=elbowEdgeStyle;rounded=0;jumpStyle=arc;orthogonalLoop=1;jettySize=auto;elbow=vertical;html=1;exitX=0.25;exitY=1;exitDx=0;exitDy=0;endArrow=none;endFill=0;" edge="1" parent="rtizMYBKSLq8vMq1UdSF-74" source="rtizMYBKSLq8vMq1UdSF-78">
          <mxGeometry relative="1" as="geometry">
            <mxPoint x="20" y="180" as="targetPoint" />
          </mxGeometry>
        </mxCell>
        <mxCell id="rtizMYBKSLq8vMq1UdSF-77" style="edgeStyle=elbowEdgeStyle;rounded=0;jumpStyle=arc;orthogonalLoop=1;jettySize=auto;elbow=vertical;html=1;exitX=0.75;exitY=1;exitDx=0;exitDy=0;endArrow=none;endFill=0;" edge="1" parent="rtizMYBKSLq8vMq1UdSF-74" source="rtizMYBKSLq8vMq1UdSF-78">
          <mxGeometry relative="1" as="geometry">
            <mxPoint x="60" y="130" as="targetPoint" />
          </mxGeometry>
        </mxCell>
        <mxCell id="rtizMYBKSLq8vMq1UdSF-78" value="" style="rounded=0;whiteSpace=wrap;html=1;" vertex="1" parent="rtizMYBKSLq8vMq1UdSF-74">
          <mxGeometry y="30" width="80" height="60" as="geometry" />
        </mxCell>
        <mxCell id="rtizMYBKSLq8vMq1UdSF-79" value="Q" style="text;html=1;align=center;verticalAlign=middle;resizable=0;points=[];autosize=1;" vertex="1" parent="rtizMYBKSLq8vMq1UdSF-74">
          <mxGeometry y="30" width="20" height="20" as="geometry" />
        </mxCell>
        <mxCell id="rtizMYBKSLq8vMq1UdSF-80" value="D" style="text;html=1;align=center;verticalAlign=middle;resizable=0;points=[];autosize=1;" vertex="1" parent="rtizMYBKSLq8vMq1UdSF-74">
          <mxGeometry y="70" width="20" height="20" as="geometry" />
        </mxCell>
        <mxCell id="rtizMYBKSLq8vMq1UdSF-81" value="E" style="text;html=1;align=center;verticalAlign=middle;resizable=0;points=[];autosize=1;" vertex="1" parent="rtizMYBKSLq8vMq1UdSF-74">
          <mxGeometry x="60" y="70" width="20" height="20" as="geometry" />
        </mxCell>
        <mxCell id="rtizMYBKSLq8vMq1UdSF-130" value="" style="group" vertex="1" connectable="0" parent="1">
          <mxGeometry x="610" y="850" width="80" height="180" as="geometry" />
        </mxCell>
        <mxCell id="rtizMYBKSLq8vMq1UdSF-91" style="edgeStyle=elbowEdgeStyle;rounded=0;jumpStyle=arc;orthogonalLoop=1;jettySize=auto;elbow=vertical;html=1;exitX=0.25;exitY=0;exitDx=0;exitDy=0;endArrow=none;endFill=0;" edge="1" parent="rtizMYBKSLq8vMq1UdSF-130" source="rtizMYBKSLq8vMq1UdSF-94">
          <mxGeometry as="geometry">
            <mxPoint x="20" as="targetPoint" />
          </mxGeometry>
        </mxCell>
        <mxCell id="rtizMYBKSLq8vMq1UdSF-92" style="edgeStyle=elbowEdgeStyle;rounded=0;jumpStyle=arc;orthogonalLoop=1;jettySize=auto;elbow=vertical;html=1;exitX=0.25;exitY=1;exitDx=0;exitDy=0;endArrow=none;endFill=0;" edge="1" parent="rtizMYBKSLq8vMq1UdSF-130" source="rtizMYBKSLq8vMq1UdSF-94">
          <mxGeometry as="geometry">
            <mxPoint x="20" y="180" as="targetPoint" />
          </mxGeometry>
        </mxCell>
        <mxCell id="rtizMYBKSLq8vMq1UdSF-93" style="edgeStyle=elbowEdgeStyle;rounded=0;jumpStyle=arc;orthogonalLoop=1;jettySize=auto;elbow=vertical;html=1;exitX=0.75;exitY=1;exitDx=0;exitDy=0;endArrow=none;endFill=0;" edge="1" parent="rtizMYBKSLq8vMq1UdSF-130" source="rtizMYBKSLq8vMq1UdSF-94">
          <mxGeometry as="geometry">
            <mxPoint x="60" y="130" as="targetPoint" />
          </mxGeometry>
        </mxCell>
        <mxCell id="rtizMYBKSLq8vMq1UdSF-94" value="" style="rounded=0;whiteSpace=wrap;html=1;" vertex="1" parent="rtizMYBKSLq8vMq1UdSF-130">
          <mxGeometry y="30" width="80" height="60" as="geometry" />
        </mxCell>
        <mxCell id="rtizMYBKSLq8vMq1UdSF-95" value="Q" style="text;html=1;align=center;verticalAlign=middle;resizable=0;points=[];autosize=1;" vertex="1" parent="rtizMYBKSLq8vMq1UdSF-130">
          <mxGeometry y="30" width="20" height="20" as="geometry" />
        </mxCell>
        <mxCell id="rtizMYBKSLq8vMq1UdSF-96" value="D" style="text;html=1;align=center;verticalAlign=middle;resizable=0;points=[];autosize=1;" vertex="1" parent="rtizMYBKSLq8vMq1UdSF-130">
          <mxGeometry y="70" width="20" height="20" as="geometry" />
        </mxCell>
        <mxCell id="rtizMYBKSLq8vMq1UdSF-97" value="E" style="text;html=1;align=center;verticalAlign=middle;resizable=0;points=[];autosize=1;" vertex="1" parent="rtizMYBKSLq8vMq1UdSF-130">
          <mxGeometry x="60" y="70" width="20" height="20" as="geometry" />
        </mxCell>
        <mxCell id="rtizMYBKSLq8vMq1UdSF-131" value="" style="group" vertex="1" connectable="0" parent="1">
          <mxGeometry x="40" y="850" width="80" height="180" as="geometry" />
        </mxCell>
        <mxCell id="rtizMYBKSLq8vMq1UdSF-132" style="edgeStyle=elbowEdgeStyle;rounded=0;jumpStyle=arc;orthogonalLoop=1;jettySize=auto;elbow=vertical;html=1;exitX=0.25;exitY=0;exitDx=0;exitDy=0;endArrow=none;endFill=0;" edge="1" parent="rtizMYBKSLq8vMq1UdSF-131" source="rtizMYBKSLq8vMq1UdSF-135">
          <mxGeometry relative="1" as="geometry">
            <mxPoint x="20" as="targetPoint" />
          </mxGeometry>
        </mxCell>
        <mxCell id="rtizMYBKSLq8vMq1UdSF-133" style="edgeStyle=elbowEdgeStyle;rounded=0;jumpStyle=arc;orthogonalLoop=1;jettySize=auto;elbow=horizontal;html=1;exitX=0.25;exitY=1;exitDx=0;exitDy=0;endArrow=none;endFill=0;" edge="1" parent="rtizMYBKSLq8vMq1UdSF-131" source="rtizMYBKSLq8vMq1UdSF-135">
          <mxGeometry relative="1" as="geometry">
            <mxPoint x="20" y="180" as="targetPoint" />
          </mxGeometry>
        </mxCell>
        <mxCell id="rtizMYBKSLq8vMq1UdSF-134" style="edgeStyle=elbowEdgeStyle;rounded=0;jumpStyle=arc;orthogonalLoop=1;jettySize=auto;elbow=vertical;html=1;exitX=0.75;exitY=1;exitDx=0;exitDy=0;endArrow=none;endFill=0;" edge="1" parent="rtizMYBKSLq8vMq1UdSF-131" source="rtizMYBKSLq8vMq1UdSF-135">
          <mxGeometry relative="1" as="geometry">
            <mxPoint x="60" y="130" as="targetPoint" />
          </mxGeometry>
        </mxCell>
        <mxCell id="rtizMYBKSLq8vMq1UdSF-135" value="" style="rounded=0;whiteSpace=wrap;html=1;" vertex="1" parent="rtizMYBKSLq8vMq1UdSF-131">
          <mxGeometry y="30" width="80" height="60" as="geometry" />
        </mxCell>
        <mxCell id="rtizMYBKSLq8vMq1UdSF-136" value="Q" style="text;html=1;align=center;verticalAlign=middle;resizable=0;points=[];autosize=1;" vertex="1" parent="rtizMYBKSLq8vMq1UdSF-131">
          <mxGeometry y="30" width="20" height="20" as="geometry" />
        </mxCell>
        <mxCell id="rtizMYBKSLq8vMq1UdSF-137" value="D" style="text;html=1;align=center;verticalAlign=middle;resizable=0;points=[];autosize=1;" vertex="1" parent="rtizMYBKSLq8vMq1UdSF-131">
          <mxGeometry y="70" width="20" height="20" as="geometry" />
        </mxCell>
        <mxCell id="rtizMYBKSLq8vMq1UdSF-138" value="E" style="text;html=1;align=center;verticalAlign=middle;resizable=0;points=[];autosize=1;" vertex="1" parent="rtizMYBKSLq8vMq1UdSF-131">
          <mxGeometry x="60" y="70" width="20" height="20" as="geometry" />
        </mxCell>
        <mxCell id="rtizMYBKSLq8vMq1UdSF-160" value="&lt;font style=&quot;font-size: 14px&quot; color=&quot;#000000&quot;&gt;Text&lt;/font&gt;" style="text;html=1;align=center;verticalAlign=middle;resizable=0;points=[];autosize=1;fontSize=30;fontColor=#FF0000;" vertex="1" parent="1">
          <mxGeometry x="40" y="815" width="40" height="50" as="geometry" />
        </mxCell>
        <mxCell id="rtizMYBKSLq8vMq1UdSF-161" value="" style="endArrow=none;html=1;fontSize=30;fontColor=#FF0000;" edge="1" parent="1">
          <mxGeometry width="50" height="50" relative="1" as="geometry">
            <mxPoint x="30" y="980" as="sourcePoint" />
            <mxPoint x="760" y="980" as="targetPoint" />
          </mxGeometry>
        </mxCell>
        <mxCell id="rtizMYBKSLq8vMq1UdSF-162" value="" style="group" vertex="1" connectable="0" parent="1">
          <mxGeometry x="230" y="790" width="254" height="40" as="geometry" />
        </mxCell>
        <mxCell id="rtizMYBKSLq8vMq1UdSF-143" value="" style="group;fontStyle=1;fontSize=34;fontColor=#7EA6E0;" vertex="1" connectable="0" parent="rtizMYBKSLq8vMq1UdSF-162">
          <mxGeometry width="60" height="40" as="geometry" />
        </mxCell>
        <mxCell id="rtizMYBKSLq8vMq1UdSF-139" value="&lt;b&gt;&lt;font style=&quot;font-size: 24px&quot; color=&quot;#6666ff&quot;&gt;D&lt;/font&gt;&lt;/b&gt;" style="text;html=1;align=center;verticalAlign=middle;resizable=0;points=[];autosize=1;" vertex="1" parent="rtizMYBKSLq8vMq1UdSF-143">
          <mxGeometry x="10" width="30" height="20" as="geometry" />
        </mxCell>
        <mxCell id="rtizMYBKSLq8vMq1UdSF-142" value="&lt;font color=&quot;#6666ff&quot; style=&quot;font-size: 16px&quot;&gt;Date In&lt;/font&gt;" style="text;html=1;align=center;verticalAlign=middle;resizable=0;points=[];autosize=1;" vertex="1" parent="rtizMYBKSLq8vMq1UdSF-143">
          <mxGeometry x="-10" y="20" width="70" height="20" as="geometry" />
        </mxCell>
        <mxCell id="rtizMYBKSLq8vMq1UdSF-153" value="" style="group;fontStyle=1;fontSize=34;fontColor=#7EA6E0;" vertex="1" connectable="0" parent="rtizMYBKSLq8vMq1UdSF-162">
          <mxGeometry x="88" width="80" height="40" as="geometry" />
        </mxCell>
        <mxCell id="rtizMYBKSLq8vMq1UdSF-154" value="&lt;b&gt;&lt;font style=&quot;font-size: 24px&quot; color=&quot;#6666ff&quot;&gt;E&lt;/font&gt;&lt;/b&gt;" style="text;html=1;align=center;verticalAlign=middle;resizable=0;points=[];autosize=1;" vertex="1" parent="rtizMYBKSLq8vMq1UdSF-153">
          <mxGeometry x="10" width="30" height="20" as="geometry" />
        </mxCell>
        <mxCell id="rtizMYBKSLq8vMq1UdSF-155" value="&lt;font color=&quot;#6666ff&quot;&gt;&lt;span style=&quot;font-size: 16px&quot;&gt;Write Enable&lt;/span&gt;&lt;/font&gt;" style="text;html=1;align=center;verticalAlign=middle;resizable=0;points=[];autosize=1;" vertex="1" parent="rtizMYBKSLq8vMq1UdSF-153">
          <mxGeometry x="-30" y="20" width="110" height="20" as="geometry" />
        </mxCell>
        <mxCell id="rtizMYBKSLq8vMq1UdSF-156" value="" style="group;fontStyle=1;fontSize=34;fontColor=#7EA6E0;" vertex="1" connectable="0" parent="rtizMYBKSLq8vMq1UdSF-162">
          <mxGeometry x="189" width="65" height="40" as="geometry" />
        </mxCell>
        <mxCell id="rtizMYBKSLq8vMq1UdSF-157" value="&lt;b&gt;&lt;font style=&quot;font-size: 24px&quot; color=&quot;#6666ff&quot;&gt;Q&lt;/font&gt;&lt;/b&gt;" style="text;html=1;align=center;verticalAlign=middle;resizable=0;points=[];autosize=1;" vertex="1" parent="rtizMYBKSLq8vMq1UdSF-156">
          <mxGeometry x="10" width="30" height="20" as="geometry" />
        </mxCell>
        <mxCell id="rtizMYBKSLq8vMq1UdSF-158" value="&lt;font color=&quot;#6666ff&quot; style=&quot;font-size: 16px&quot;&gt;Date Out&lt;/font&gt;" style="text;html=1;align=center;verticalAlign=middle;resizable=0;points=[];autosize=1;" vertex="1" parent="rtizMYBKSLq8vMq1UdSF-156">
          <mxGeometry x="-15" y="20" width="80" height="20" as="geometry" />
        </mxCell>
        <mxCell id="rtizMYBKSLq8vMq1UdSF-579" value="" style="group" vertex="1" connectable="0" parent="1">
          <mxGeometry x="840" y="89.99999999999989" width="670" height="522.857142857143" as="geometry" />
        </mxCell>
        <mxCell id="rtizMYBKSLq8vMq1UdSF-329" value="" style="group" vertex="1" connectable="0" parent="rtizMYBKSLq8vMq1UdSF-579">
          <mxGeometry x="60" y="17.000000000000114" width="50" height="476.5" as="geometry" />
        </mxCell>
        <mxCell id="rtizMYBKSLq8vMq1UdSF-303" value="register" style="rounded=0;whiteSpace=wrap;html=1;fontSize=12;align=center;" vertex="1" parent="rtizMYBKSLq8vMq1UdSF-329">
          <mxGeometry width="50" height="21" as="geometry" />
        </mxCell>
        <mxCell id="rtizMYBKSLq8vMq1UdSF-304" value="register" style="rounded=0;whiteSpace=wrap;html=1;fontSize=12;align=center;" vertex="1" parent="rtizMYBKSLq8vMq1UdSF-329">
          <mxGeometry y="29.5" width="50" height="21" as="geometry" />
        </mxCell>
        <mxCell id="rtizMYBKSLq8vMq1UdSF-305" value="register" style="rounded=0;whiteSpace=wrap;html=1;fontSize=12;align=center;" vertex="1" parent="rtizMYBKSLq8vMq1UdSF-329">
          <mxGeometry y="62.5" width="50" height="21" as="geometry" />
        </mxCell>
        <mxCell id="rtizMYBKSLq8vMq1UdSF-306" value="register" style="rounded=0;whiteSpace=wrap;html=1;fontSize=12;align=center;" vertex="1" parent="rtizMYBKSLq8vMq1UdSF-329">
          <mxGeometry y="93" width="50" height="21" as="geometry" />
        </mxCell>
        <mxCell id="rtizMYBKSLq8vMq1UdSF-307" value="register" style="rounded=0;whiteSpace=wrap;html=1;fontSize=12;align=center;" vertex="1" parent="rtizMYBKSLq8vMq1UdSF-329">
          <mxGeometry y="123" width="50" height="21" as="geometry" />
        </mxCell>
        <mxCell id="rtizMYBKSLq8vMq1UdSF-308" value="register" style="rounded=0;whiteSpace=wrap;html=1;fontSize=12;align=center;" vertex="1" parent="rtizMYBKSLq8vMq1UdSF-329">
          <mxGeometry y="153" width="50" height="21" as="geometry" />
        </mxCell>
        <mxCell id="rtizMYBKSLq8vMq1UdSF-309" value="register" style="rounded=0;whiteSpace=wrap;html=1;fontSize=12;align=center;" vertex="1" parent="rtizMYBKSLq8vMq1UdSF-329">
          <mxGeometry y="183" width="50" height="21" as="geometry" />
        </mxCell>
        <mxCell id="rtizMYBKSLq8vMq1UdSF-310" value="register" style="rounded=0;whiteSpace=wrap;html=1;fontSize=12;align=center;" vertex="1" parent="rtizMYBKSLq8vMq1UdSF-329">
          <mxGeometry y="212.5" width="50" height="21" as="geometry" />
        </mxCell>
        <mxCell id="rtizMYBKSLq8vMq1UdSF-321" value="register" style="rounded=0;whiteSpace=wrap;html=1;fontSize=12;align=center;" vertex="1" parent="rtizMYBKSLq8vMq1UdSF-329">
          <mxGeometry y="243" width="50" height="21" as="geometry" />
        </mxCell>
        <mxCell id="rtizMYBKSLq8vMq1UdSF-322" value="register" style="rounded=0;whiteSpace=wrap;html=1;fontSize=12;align=center;" vertex="1" parent="rtizMYBKSLq8vMq1UdSF-329">
          <mxGeometry y="272.5" width="50" height="21" as="geometry" />
        </mxCell>
        <mxCell id="rtizMYBKSLq8vMq1UdSF-323" value="register" style="rounded=0;whiteSpace=wrap;html=1;fontSize=12;align=center;" vertex="1" parent="rtizMYBKSLq8vMq1UdSF-329">
          <mxGeometry y="305.5" width="50" height="21" as="geometry" />
        </mxCell>
        <mxCell id="rtizMYBKSLq8vMq1UdSF-324" value="register" style="rounded=0;whiteSpace=wrap;html=1;fontSize=12;align=center;" vertex="1" parent="rtizMYBKSLq8vMq1UdSF-329">
          <mxGeometry y="336" width="50" height="21" as="geometry" />
        </mxCell>
        <mxCell id="rtizMYBKSLq8vMq1UdSF-325" value="register" style="rounded=0;whiteSpace=wrap;html=1;fontSize=12;align=center;" vertex="1" parent="rtizMYBKSLq8vMq1UdSF-329">
          <mxGeometry y="366" width="50" height="21" as="geometry" />
        </mxCell>
        <mxCell id="rtizMYBKSLq8vMq1UdSF-326" value="register" style="rounded=0;whiteSpace=wrap;html=1;fontSize=12;align=center;" vertex="1" parent="rtizMYBKSLq8vMq1UdSF-329">
          <mxGeometry y="396" width="50" height="21" as="geometry" />
        </mxCell>
        <mxCell id="rtizMYBKSLq8vMq1UdSF-327" value="register" style="rounded=0;whiteSpace=wrap;html=1;fontSize=12;align=center;" vertex="1" parent="rtizMYBKSLq8vMq1UdSF-329">
          <mxGeometry y="426" width="50" height="21" as="geometry" />
        </mxCell>
        <mxCell id="rtizMYBKSLq8vMq1UdSF-328" value="register" style="rounded=0;whiteSpace=wrap;html=1;fontSize=12;align=center;" vertex="1" parent="rtizMYBKSLq8vMq1UdSF-329">
          <mxGeometry y="455.5" width="50" height="21" as="geometry" />
        </mxCell>
        <mxCell id="rtizMYBKSLq8vMq1UdSF-421" value="" style="group" vertex="1" connectable="0" parent="rtizMYBKSLq8vMq1UdSF-579">
          <mxGeometry x="130" y="17.000000000000114" width="51" height="476.5" as="geometry" />
        </mxCell>
        <mxCell id="rtizMYBKSLq8vMq1UdSF-422" value="register" style="rounded=0;whiteSpace=wrap;html=1;fontSize=12;align=center;" vertex="1" parent="rtizMYBKSLq8vMq1UdSF-421">
          <mxGeometry width="50" height="21" as="geometry" />
        </mxCell>
        <mxCell id="rtizMYBKSLq8vMq1UdSF-423" value="register" style="rounded=0;whiteSpace=wrap;html=1;fontSize=12;align=center;" vertex="1" parent="rtizMYBKSLq8vMq1UdSF-421">
          <mxGeometry y="29.5" width="50" height="21" as="geometry" />
        </mxCell>
        <mxCell id="rtizMYBKSLq8vMq1UdSF-424" value="register" style="rounded=0;whiteSpace=wrap;html=1;fontSize=12;align=center;" vertex="1" parent="rtizMYBKSLq8vMq1UdSF-421">
          <mxGeometry y="62.5" width="50" height="21" as="geometry" />
        </mxCell>
        <mxCell id="rtizMYBKSLq8vMq1UdSF-425" value="register" style="rounded=0;whiteSpace=wrap;html=1;fontSize=12;align=center;" vertex="1" parent="rtizMYBKSLq8vMq1UdSF-421">
          <mxGeometry y="93" width="50" height="21" as="geometry" />
        </mxCell>
        <mxCell id="rtizMYBKSLq8vMq1UdSF-426" value="register" style="rounded=0;whiteSpace=wrap;html=1;fontSize=12;align=center;" vertex="1" parent="rtizMYBKSLq8vMq1UdSF-421">
          <mxGeometry y="123" width="50" height="21" as="geometry" />
        </mxCell>
        <mxCell id="rtizMYBKSLq8vMq1UdSF-427" value="register" style="rounded=0;whiteSpace=wrap;html=1;fontSize=12;align=center;" vertex="1" parent="rtizMYBKSLq8vMq1UdSF-421">
          <mxGeometry y="153" width="50" height="21" as="geometry" />
        </mxCell>
        <mxCell id="rtizMYBKSLq8vMq1UdSF-428" value="register" style="rounded=0;whiteSpace=wrap;html=1;fontSize=12;align=center;" vertex="1" parent="rtizMYBKSLq8vMq1UdSF-421">
          <mxGeometry y="183" width="50" height="21" as="geometry" />
        </mxCell>
        <mxCell id="rtizMYBKSLq8vMq1UdSF-429" value="register" style="rounded=0;whiteSpace=wrap;html=1;fontSize=12;align=center;" vertex="1" parent="rtizMYBKSLq8vMq1UdSF-421">
          <mxGeometry y="212.5" width="50" height="21" as="geometry" />
        </mxCell>
        <mxCell id="rtizMYBKSLq8vMq1UdSF-430" value="register" style="rounded=0;whiteSpace=wrap;html=1;fontSize=12;align=center;" vertex="1" parent="rtizMYBKSLq8vMq1UdSF-421">
          <mxGeometry y="243" width="50" height="21" as="geometry" />
        </mxCell>
        <mxCell id="rtizMYBKSLq8vMq1UdSF-431" value="register" style="rounded=0;whiteSpace=wrap;html=1;fontSize=12;align=center;" vertex="1" parent="rtizMYBKSLq8vMq1UdSF-421">
          <mxGeometry y="272.5" width="50" height="21" as="geometry" />
        </mxCell>
        <mxCell id="rtizMYBKSLq8vMq1UdSF-432" value="register" style="rounded=0;whiteSpace=wrap;html=1;fontSize=12;align=center;" vertex="1" parent="rtizMYBKSLq8vMq1UdSF-421">
          <mxGeometry y="305.5" width="50" height="21" as="geometry" />
        </mxCell>
        <mxCell id="rtizMYBKSLq8vMq1UdSF-433" value="register" style="rounded=0;whiteSpace=wrap;html=1;fontSize=12;align=center;" vertex="1" parent="rtizMYBKSLq8vMq1UdSF-421">
          <mxGeometry y="336" width="50" height="21" as="geometry" />
        </mxCell>
        <mxCell id="rtizMYBKSLq8vMq1UdSF-434" value="register" style="rounded=0;whiteSpace=wrap;html=1;fontSize=12;align=center;" vertex="1" parent="rtizMYBKSLq8vMq1UdSF-421">
          <mxGeometry y="366" width="50" height="21" as="geometry" />
        </mxCell>
        <mxCell id="rtizMYBKSLq8vMq1UdSF-435" value="register" style="rounded=0;whiteSpace=wrap;html=1;fontSize=12;align=center;" vertex="1" parent="rtizMYBKSLq8vMq1UdSF-421">
          <mxGeometry y="396" width="50" height="21" as="geometry" />
        </mxCell>
        <mxCell id="rtizMYBKSLq8vMq1UdSF-436" value="register" style="rounded=0;whiteSpace=wrap;html=1;fontSize=12;align=center;" vertex="1" parent="rtizMYBKSLq8vMq1UdSF-421">
          <mxGeometry y="426" width="50" height="21" as="geometry" />
        </mxCell>
        <mxCell id="rtizMYBKSLq8vMq1UdSF-437" value="register" style="rounded=0;whiteSpace=wrap;html=1;fontSize=12;align=center;" vertex="1" parent="rtizMYBKSLq8vMq1UdSF-421">
          <mxGeometry y="455.5" width="50" height="21" as="geometry" />
        </mxCell>
        <mxCell id="rtizMYBKSLq8vMq1UdSF-438" value="" style="group" vertex="1" connectable="0" parent="rtizMYBKSLq8vMq1UdSF-579">
          <mxGeometry x="200" y="17.000000000000114" width="51" height="476.5" as="geometry" />
        </mxCell>
        <mxCell id="rtizMYBKSLq8vMq1UdSF-439" value="register" style="rounded=0;whiteSpace=wrap;html=1;fontSize=12;align=center;" vertex="1" parent="rtizMYBKSLq8vMq1UdSF-438">
          <mxGeometry width="50" height="21" as="geometry" />
        </mxCell>
        <mxCell id="rtizMYBKSLq8vMq1UdSF-440" value="register" style="rounded=0;whiteSpace=wrap;html=1;fontSize=12;align=center;" vertex="1" parent="rtizMYBKSLq8vMq1UdSF-438">
          <mxGeometry y="29.5" width="50" height="21" as="geometry" />
        </mxCell>
        <mxCell id="rtizMYBKSLq8vMq1UdSF-441" value="register" style="rounded=0;whiteSpace=wrap;html=1;fontSize=12;align=center;" vertex="1" parent="rtizMYBKSLq8vMq1UdSF-438">
          <mxGeometry y="62.5" width="50" height="21" as="geometry" />
        </mxCell>
        <mxCell id="rtizMYBKSLq8vMq1UdSF-442" value="register" style="rounded=0;whiteSpace=wrap;html=1;fontSize=12;align=center;" vertex="1" parent="rtizMYBKSLq8vMq1UdSF-438">
          <mxGeometry y="93" width="50" height="21" as="geometry" />
        </mxCell>
        <mxCell id="rtizMYBKSLq8vMq1UdSF-443" value="register" style="rounded=0;whiteSpace=wrap;html=1;fontSize=12;align=center;" vertex="1" parent="rtizMYBKSLq8vMq1UdSF-438">
          <mxGeometry y="123" width="50" height="21" as="geometry" />
        </mxCell>
        <mxCell id="rtizMYBKSLq8vMq1UdSF-444" value="register" style="rounded=0;whiteSpace=wrap;html=1;fontSize=12;align=center;" vertex="1" parent="rtizMYBKSLq8vMq1UdSF-438">
          <mxGeometry y="153" width="50" height="21" as="geometry" />
        </mxCell>
        <mxCell id="rtizMYBKSLq8vMq1UdSF-445" value="register" style="rounded=0;whiteSpace=wrap;html=1;fontSize=12;align=center;" vertex="1" parent="rtizMYBKSLq8vMq1UdSF-438">
          <mxGeometry y="183" width="50" height="21" as="geometry" />
        </mxCell>
        <mxCell id="rtizMYBKSLq8vMq1UdSF-446" value="register" style="rounded=0;whiteSpace=wrap;html=1;fontSize=12;align=center;" vertex="1" parent="rtizMYBKSLq8vMq1UdSF-438">
          <mxGeometry y="212.5" width="50" height="21" as="geometry" />
        </mxCell>
        <mxCell id="rtizMYBKSLq8vMq1UdSF-447" value="register" style="rounded=0;whiteSpace=wrap;html=1;fontSize=12;align=center;" vertex="1" parent="rtizMYBKSLq8vMq1UdSF-438">
          <mxGeometry y="243" width="50" height="21" as="geometry" />
        </mxCell>
        <mxCell id="rtizMYBKSLq8vMq1UdSF-448" value="register" style="rounded=0;whiteSpace=wrap;html=1;fontSize=12;align=center;" vertex="1" parent="rtizMYBKSLq8vMq1UdSF-438">
          <mxGeometry y="272.5" width="50" height="21" as="geometry" />
        </mxCell>
        <mxCell id="rtizMYBKSLq8vMq1UdSF-449" value="register" style="rounded=0;whiteSpace=wrap;html=1;fontSize=12;align=center;" vertex="1" parent="rtizMYBKSLq8vMq1UdSF-438">
          <mxGeometry y="305.5" width="50" height="21" as="geometry" />
        </mxCell>
        <mxCell id="rtizMYBKSLq8vMq1UdSF-450" value="register" style="rounded=0;whiteSpace=wrap;html=1;fontSize=12;align=center;" vertex="1" parent="rtizMYBKSLq8vMq1UdSF-438">
          <mxGeometry y="336" width="50" height="21" as="geometry" />
        </mxCell>
        <mxCell id="rtizMYBKSLq8vMq1UdSF-451" value="register" style="rounded=0;whiteSpace=wrap;html=1;fontSize=12;align=center;" vertex="1" parent="rtizMYBKSLq8vMq1UdSF-438">
          <mxGeometry y="366" width="50" height="21" as="geometry" />
        </mxCell>
        <mxCell id="rtizMYBKSLq8vMq1UdSF-452" value="register" style="rounded=0;whiteSpace=wrap;html=1;fontSize=12;align=center;" vertex="1" parent="rtizMYBKSLq8vMq1UdSF-438">
          <mxGeometry y="396" width="50" height="21" as="geometry" />
        </mxCell>
        <mxCell id="rtizMYBKSLq8vMq1UdSF-453" value="register" style="rounded=0;whiteSpace=wrap;html=1;fontSize=12;align=center;" vertex="1" parent="rtizMYBKSLq8vMq1UdSF-438">
          <mxGeometry y="426" width="50" height="21" as="geometry" />
        </mxCell>
        <mxCell id="rtizMYBKSLq8vMq1UdSF-454" value="register" style="rounded=0;whiteSpace=wrap;html=1;fontSize=12;align=center;" vertex="1" parent="rtizMYBKSLq8vMq1UdSF-438">
          <mxGeometry y="455.5" width="50" height="21" as="geometry" />
        </mxCell>
        <mxCell id="rtizMYBKSLq8vMq1UdSF-455" value="" style="group" vertex="1" connectable="0" parent="rtizMYBKSLq8vMq1UdSF-579">
          <mxGeometry x="270" y="17.000000000000114" width="51" height="476.5" as="geometry" />
        </mxCell>
        <mxCell id="rtizMYBKSLq8vMq1UdSF-456" value="register" style="rounded=0;whiteSpace=wrap;html=1;fontSize=12;align=center;" vertex="1" parent="rtizMYBKSLq8vMq1UdSF-455">
          <mxGeometry width="50" height="21" as="geometry" />
        </mxCell>
        <mxCell id="rtizMYBKSLq8vMq1UdSF-457" value="register" style="rounded=0;whiteSpace=wrap;html=1;fontSize=12;align=center;" vertex="1" parent="rtizMYBKSLq8vMq1UdSF-455">
          <mxGeometry y="29.5" width="50" height="21" as="geometry" />
        </mxCell>
        <mxCell id="rtizMYBKSLq8vMq1UdSF-458" value="register" style="rounded=0;whiteSpace=wrap;html=1;fontSize=12;align=center;" vertex="1" parent="rtizMYBKSLq8vMq1UdSF-455">
          <mxGeometry y="62.5" width="50" height="21" as="geometry" />
        </mxCell>
        <mxCell id="rtizMYBKSLq8vMq1UdSF-459" value="register" style="rounded=0;whiteSpace=wrap;html=1;fontSize=12;align=center;" vertex="1" parent="rtizMYBKSLq8vMq1UdSF-455">
          <mxGeometry y="93" width="50" height="21" as="geometry" />
        </mxCell>
        <mxCell id="rtizMYBKSLq8vMq1UdSF-460" value="register" style="rounded=0;whiteSpace=wrap;html=1;fontSize=12;align=center;" vertex="1" parent="rtizMYBKSLq8vMq1UdSF-455">
          <mxGeometry y="123" width="50" height="21" as="geometry" />
        </mxCell>
        <mxCell id="rtizMYBKSLq8vMq1UdSF-461" value="register" style="rounded=0;whiteSpace=wrap;html=1;fontSize=12;align=center;" vertex="1" parent="rtizMYBKSLq8vMq1UdSF-455">
          <mxGeometry y="153" width="50" height="21" as="geometry" />
        </mxCell>
        <mxCell id="rtizMYBKSLq8vMq1UdSF-462" value="register" style="rounded=0;whiteSpace=wrap;html=1;fontSize=12;align=center;" vertex="1" parent="rtizMYBKSLq8vMq1UdSF-455">
          <mxGeometry y="183" width="50" height="21" as="geometry" />
        </mxCell>
        <mxCell id="rtizMYBKSLq8vMq1UdSF-463" value="register" style="rounded=0;whiteSpace=wrap;html=1;fontSize=12;align=center;" vertex="1" parent="rtizMYBKSLq8vMq1UdSF-455">
          <mxGeometry y="212.5" width="50" height="21" as="geometry" />
        </mxCell>
        <mxCell id="rtizMYBKSLq8vMq1UdSF-464" value="register" style="rounded=0;whiteSpace=wrap;html=1;fontSize=12;align=center;" vertex="1" parent="rtizMYBKSLq8vMq1UdSF-455">
          <mxGeometry y="243" width="50" height="21" as="geometry" />
        </mxCell>
        <mxCell id="rtizMYBKSLq8vMq1UdSF-465" value="register" style="rounded=0;whiteSpace=wrap;html=1;fontSize=12;align=center;" vertex="1" parent="rtizMYBKSLq8vMq1UdSF-455">
          <mxGeometry y="272.5" width="50" height="21" as="geometry" />
        </mxCell>
        <mxCell id="rtizMYBKSLq8vMq1UdSF-466" value="register" style="rounded=0;whiteSpace=wrap;html=1;fontSize=12;align=center;" vertex="1" parent="rtizMYBKSLq8vMq1UdSF-455">
          <mxGeometry y="305.5" width="50" height="21" as="geometry" />
        </mxCell>
        <mxCell id="rtizMYBKSLq8vMq1UdSF-467" value="register" style="rounded=0;whiteSpace=wrap;html=1;fontSize=12;align=center;" vertex="1" parent="rtizMYBKSLq8vMq1UdSF-455">
          <mxGeometry y="336" width="50" height="21" as="geometry" />
        </mxCell>
        <mxCell id="rtizMYBKSLq8vMq1UdSF-468" value="register" style="rounded=0;whiteSpace=wrap;html=1;fontSize=12;align=center;" vertex="1" parent="rtizMYBKSLq8vMq1UdSF-455">
          <mxGeometry y="366" width="50" height="21" as="geometry" />
        </mxCell>
        <mxCell id="rtizMYBKSLq8vMq1UdSF-469" value="register" style="rounded=0;whiteSpace=wrap;html=1;fontSize=12;align=center;" vertex="1" parent="rtizMYBKSLq8vMq1UdSF-455">
          <mxGeometry y="396" width="50" height="21" as="geometry" />
        </mxCell>
        <mxCell id="rtizMYBKSLq8vMq1UdSF-470" value="register" style="rounded=0;whiteSpace=wrap;html=1;fontSize=12;align=center;" vertex="1" parent="rtizMYBKSLq8vMq1UdSF-455">
          <mxGeometry y="426" width="50" height="21" as="geometry" />
        </mxCell>
        <mxCell id="rtizMYBKSLq8vMq1UdSF-471" value="register" style="rounded=0;whiteSpace=wrap;html=1;fontSize=12;align=center;" vertex="1" parent="rtizMYBKSLq8vMq1UdSF-455">
          <mxGeometry y="455.5" width="50" height="21" as="geometry" />
        </mxCell>
        <mxCell id="rtizMYBKSLq8vMq1UdSF-472" value="" style="group" vertex="1" connectable="0" parent="rtizMYBKSLq8vMq1UdSF-579">
          <mxGeometry x="340" y="17.000000000000114" width="54" height="476.5" as="geometry" />
        </mxCell>
        <mxCell id="rtizMYBKSLq8vMq1UdSF-473" value="register" style="rounded=0;whiteSpace=wrap;html=1;fontSize=12;align=center;" vertex="1" parent="rtizMYBKSLq8vMq1UdSF-472">
          <mxGeometry width="50" height="21" as="geometry" />
        </mxCell>
        <mxCell id="rtizMYBKSLq8vMq1UdSF-474" value="register" style="rounded=0;whiteSpace=wrap;html=1;fontSize=12;align=center;" vertex="1" parent="rtizMYBKSLq8vMq1UdSF-472">
          <mxGeometry y="29.5" width="50" height="21" as="geometry" />
        </mxCell>
        <mxCell id="rtizMYBKSLq8vMq1UdSF-475" value="register" style="rounded=0;whiteSpace=wrap;html=1;fontSize=12;align=center;" vertex="1" parent="rtizMYBKSLq8vMq1UdSF-472">
          <mxGeometry y="62.5" width="50" height="21" as="geometry" />
        </mxCell>
        <mxCell id="rtizMYBKSLq8vMq1UdSF-476" value="register" style="rounded=0;whiteSpace=wrap;html=1;fontSize=12;align=center;" vertex="1" parent="rtizMYBKSLq8vMq1UdSF-472">
          <mxGeometry y="93" width="50" height="21" as="geometry" />
        </mxCell>
        <mxCell id="rtizMYBKSLq8vMq1UdSF-477" value="register" style="rounded=0;whiteSpace=wrap;html=1;fontSize=12;align=center;" vertex="1" parent="rtizMYBKSLq8vMq1UdSF-472">
          <mxGeometry y="123" width="50" height="21" as="geometry" />
        </mxCell>
        <mxCell id="rtizMYBKSLq8vMq1UdSF-478" value="register" style="rounded=0;whiteSpace=wrap;html=1;fontSize=12;align=center;" vertex="1" parent="rtizMYBKSLq8vMq1UdSF-472">
          <mxGeometry y="153" width="50" height="21" as="geometry" />
        </mxCell>
        <mxCell id="rtizMYBKSLq8vMq1UdSF-479" value="register" style="rounded=0;whiteSpace=wrap;html=1;fontSize=12;align=center;" vertex="1" parent="rtizMYBKSLq8vMq1UdSF-472">
          <mxGeometry y="183" width="50" height="21" as="geometry" />
        </mxCell>
        <mxCell id="rtizMYBKSLq8vMq1UdSF-480" value="register" style="rounded=0;whiteSpace=wrap;html=1;fontSize=12;align=center;" vertex="1" parent="rtizMYBKSLq8vMq1UdSF-472">
          <mxGeometry y="212.5" width="50" height="21" as="geometry" />
        </mxCell>
        <mxCell id="rtizMYBKSLq8vMq1UdSF-481" value="register" style="rounded=0;whiteSpace=wrap;html=1;fontSize=12;align=center;" vertex="1" parent="rtizMYBKSLq8vMq1UdSF-472">
          <mxGeometry y="243" width="50" height="21" as="geometry" />
        </mxCell>
        <mxCell id="rtizMYBKSLq8vMq1UdSF-482" value="register" style="rounded=0;whiteSpace=wrap;html=1;fontSize=12;align=center;" vertex="1" parent="rtizMYBKSLq8vMq1UdSF-472">
          <mxGeometry y="272.5" width="50" height="21" as="geometry" />
        </mxCell>
        <mxCell id="rtizMYBKSLq8vMq1UdSF-483" value="register" style="rounded=0;whiteSpace=wrap;html=1;fontSize=12;align=center;" vertex="1" parent="rtizMYBKSLq8vMq1UdSF-472">
          <mxGeometry y="305.5" width="50" height="21" as="geometry" />
        </mxCell>
        <mxCell id="rtizMYBKSLq8vMq1UdSF-484" value="register" style="rounded=0;whiteSpace=wrap;html=1;fontSize=12;align=center;" vertex="1" parent="rtizMYBKSLq8vMq1UdSF-472">
          <mxGeometry y="336" width="50" height="21" as="geometry" />
        </mxCell>
        <mxCell id="rtizMYBKSLq8vMq1UdSF-485" value="register" style="rounded=0;whiteSpace=wrap;html=1;fontSize=12;align=center;" vertex="1" parent="rtizMYBKSLq8vMq1UdSF-472">
          <mxGeometry y="366" width="50" height="21" as="geometry" />
        </mxCell>
        <mxCell id="rtizMYBKSLq8vMq1UdSF-486" value="register" style="rounded=0;whiteSpace=wrap;html=1;fontSize=12;align=center;" vertex="1" parent="rtizMYBKSLq8vMq1UdSF-472">
          <mxGeometry y="396" width="50" height="21" as="geometry" />
        </mxCell>
        <mxCell id="rtizMYBKSLq8vMq1UdSF-487" value="register" style="rounded=0;whiteSpace=wrap;html=1;fontSize=12;align=center;" vertex="1" parent="rtizMYBKSLq8vMq1UdSF-472">
          <mxGeometry y="426" width="50" height="21" as="geometry" />
        </mxCell>
        <mxCell id="rtizMYBKSLq8vMq1UdSF-488" value="register" style="rounded=0;whiteSpace=wrap;html=1;fontSize=12;align=center;" vertex="1" parent="rtizMYBKSLq8vMq1UdSF-472">
          <mxGeometry y="455.5" width="50" height="21" as="geometry" />
        </mxCell>
        <mxCell id="rtizMYBKSLq8vMq1UdSF-489" value="" style="group" vertex="1" connectable="0" parent="rtizMYBKSLq8vMq1UdSF-579">
          <mxGeometry x="410" y="17.000000000000114" width="54" height="476.5" as="geometry" />
        </mxCell>
        <mxCell id="rtizMYBKSLq8vMq1UdSF-490" value="register" style="rounded=0;whiteSpace=wrap;html=1;fontSize=12;align=center;" vertex="1" parent="rtizMYBKSLq8vMq1UdSF-489">
          <mxGeometry width="50" height="21" as="geometry" />
        </mxCell>
        <mxCell id="rtizMYBKSLq8vMq1UdSF-491" value="register" style="rounded=0;whiteSpace=wrap;html=1;fontSize=12;align=center;" vertex="1" parent="rtizMYBKSLq8vMq1UdSF-489">
          <mxGeometry y="29.5" width="50" height="21" as="geometry" />
        </mxCell>
        <mxCell id="rtizMYBKSLq8vMq1UdSF-492" value="register" style="rounded=0;whiteSpace=wrap;html=1;fontSize=12;align=center;" vertex="1" parent="rtizMYBKSLq8vMq1UdSF-489">
          <mxGeometry y="62.5" width="50" height="21" as="geometry" />
        </mxCell>
        <mxCell id="rtizMYBKSLq8vMq1UdSF-493" value="register" style="rounded=0;whiteSpace=wrap;html=1;fontSize=12;align=center;" vertex="1" parent="rtizMYBKSLq8vMq1UdSF-489">
          <mxGeometry y="93" width="50" height="21" as="geometry" />
        </mxCell>
        <mxCell id="rtizMYBKSLq8vMq1UdSF-494" value="register" style="rounded=0;whiteSpace=wrap;html=1;fontSize=12;align=center;" vertex="1" parent="rtizMYBKSLq8vMq1UdSF-489">
          <mxGeometry y="123" width="50" height="21" as="geometry" />
        </mxCell>
        <mxCell id="rtizMYBKSLq8vMq1UdSF-495" value="register" style="rounded=0;whiteSpace=wrap;html=1;fontSize=12;align=center;" vertex="1" parent="rtizMYBKSLq8vMq1UdSF-489">
          <mxGeometry y="153" width="50" height="21" as="geometry" />
        </mxCell>
        <mxCell id="rtizMYBKSLq8vMq1UdSF-496" value="register" style="rounded=0;whiteSpace=wrap;html=1;fontSize=12;align=center;" vertex="1" parent="rtizMYBKSLq8vMq1UdSF-489">
          <mxGeometry y="183" width="50" height="21" as="geometry" />
        </mxCell>
        <mxCell id="rtizMYBKSLq8vMq1UdSF-497" value="register" style="rounded=0;whiteSpace=wrap;html=1;fontSize=12;align=center;" vertex="1" parent="rtizMYBKSLq8vMq1UdSF-489">
          <mxGeometry y="212.5" width="50" height="21" as="geometry" />
        </mxCell>
        <mxCell id="rtizMYBKSLq8vMq1UdSF-498" value="register" style="rounded=0;whiteSpace=wrap;html=1;fontSize=12;align=center;" vertex="1" parent="rtizMYBKSLq8vMq1UdSF-489">
          <mxGeometry y="243" width="50" height="21" as="geometry" />
        </mxCell>
        <mxCell id="rtizMYBKSLq8vMq1UdSF-499" value="register" style="rounded=0;whiteSpace=wrap;html=1;fontSize=12;align=center;" vertex="1" parent="rtizMYBKSLq8vMq1UdSF-489">
          <mxGeometry y="272.5" width="50" height="21" as="geometry" />
        </mxCell>
        <mxCell id="rtizMYBKSLq8vMq1UdSF-500" value="register" style="rounded=0;whiteSpace=wrap;html=1;fontSize=12;align=center;" vertex="1" parent="rtizMYBKSLq8vMq1UdSF-489">
          <mxGeometry y="305.5" width="50" height="21" as="geometry" />
        </mxCell>
        <mxCell id="rtizMYBKSLq8vMq1UdSF-501" value="register" style="rounded=0;whiteSpace=wrap;html=1;fontSize=12;align=center;" vertex="1" parent="rtizMYBKSLq8vMq1UdSF-489">
          <mxGeometry y="336" width="50" height="21" as="geometry" />
        </mxCell>
        <mxCell id="rtizMYBKSLq8vMq1UdSF-502" value="register" style="rounded=0;whiteSpace=wrap;html=1;fontSize=12;align=center;" vertex="1" parent="rtizMYBKSLq8vMq1UdSF-489">
          <mxGeometry y="366" width="50" height="21" as="geometry" />
        </mxCell>
        <mxCell id="rtizMYBKSLq8vMq1UdSF-503" value="register" style="rounded=0;whiteSpace=wrap;html=1;fontSize=12;align=center;" vertex="1" parent="rtizMYBKSLq8vMq1UdSF-489">
          <mxGeometry y="396" width="50" height="21" as="geometry" />
        </mxCell>
        <mxCell id="rtizMYBKSLq8vMq1UdSF-504" value="register" style="rounded=0;whiteSpace=wrap;html=1;fontSize=12;align=center;" vertex="1" parent="rtizMYBKSLq8vMq1UdSF-489">
          <mxGeometry y="426" width="50" height="21" as="geometry" />
        </mxCell>
        <mxCell id="rtizMYBKSLq8vMq1UdSF-505" value="register" style="rounded=0;whiteSpace=wrap;html=1;fontSize=12;align=center;" vertex="1" parent="rtizMYBKSLq8vMq1UdSF-489">
          <mxGeometry y="455.5" width="50" height="21" as="geometry" />
        </mxCell>
        <mxCell id="rtizMYBKSLq8vMq1UdSF-523" value="" style="group" vertex="1" connectable="0" parent="rtizMYBKSLq8vMq1UdSF-579">
          <mxGeometry x="480" y="17.000000000000114" width="54" height="476.5" as="geometry" />
        </mxCell>
        <mxCell id="rtizMYBKSLq8vMq1UdSF-524" value="register" style="rounded=0;whiteSpace=wrap;html=1;fontSize=12;align=center;" vertex="1" parent="rtizMYBKSLq8vMq1UdSF-523">
          <mxGeometry width="50" height="21" as="geometry" />
        </mxCell>
        <mxCell id="rtizMYBKSLq8vMq1UdSF-525" value="register" style="rounded=0;whiteSpace=wrap;html=1;fontSize=12;align=center;" vertex="1" parent="rtizMYBKSLq8vMq1UdSF-523">
          <mxGeometry y="29.5" width="50" height="21" as="geometry" />
        </mxCell>
        <mxCell id="rtizMYBKSLq8vMq1UdSF-526" value="register" style="rounded=0;whiteSpace=wrap;html=1;fontSize=12;align=center;" vertex="1" parent="rtizMYBKSLq8vMq1UdSF-523">
          <mxGeometry y="62.5" width="50" height="21" as="geometry" />
        </mxCell>
        <mxCell id="rtizMYBKSLq8vMq1UdSF-527" value="register" style="rounded=0;whiteSpace=wrap;html=1;fontSize=12;align=center;" vertex="1" parent="rtizMYBKSLq8vMq1UdSF-523">
          <mxGeometry y="93" width="50" height="21" as="geometry" />
        </mxCell>
        <mxCell id="rtizMYBKSLq8vMq1UdSF-528" value="register" style="rounded=0;whiteSpace=wrap;html=1;fontSize=12;align=center;" vertex="1" parent="rtizMYBKSLq8vMq1UdSF-523">
          <mxGeometry y="123" width="50" height="21" as="geometry" />
        </mxCell>
        <mxCell id="rtizMYBKSLq8vMq1UdSF-529" value="register" style="rounded=0;whiteSpace=wrap;html=1;fontSize=12;align=center;" vertex="1" parent="rtizMYBKSLq8vMq1UdSF-523">
          <mxGeometry y="153" width="50" height="21" as="geometry" />
        </mxCell>
        <mxCell id="rtizMYBKSLq8vMq1UdSF-530" value="register" style="rounded=0;whiteSpace=wrap;html=1;fontSize=12;align=center;" vertex="1" parent="rtizMYBKSLq8vMq1UdSF-523">
          <mxGeometry y="183" width="50" height="21" as="geometry" />
        </mxCell>
        <mxCell id="rtizMYBKSLq8vMq1UdSF-531" value="register" style="rounded=0;whiteSpace=wrap;html=1;fontSize=12;align=center;" vertex="1" parent="rtizMYBKSLq8vMq1UdSF-523">
          <mxGeometry y="212.5" width="50" height="21" as="geometry" />
        </mxCell>
        <mxCell id="rtizMYBKSLq8vMq1UdSF-532" value="register" style="rounded=0;whiteSpace=wrap;html=1;fontSize=12;align=center;" vertex="1" parent="rtizMYBKSLq8vMq1UdSF-523">
          <mxGeometry y="243" width="50" height="21" as="geometry" />
        </mxCell>
        <mxCell id="rtizMYBKSLq8vMq1UdSF-533" value="register" style="rounded=0;whiteSpace=wrap;html=1;fontSize=12;align=center;" vertex="1" parent="rtizMYBKSLq8vMq1UdSF-523">
          <mxGeometry y="272.5" width="50" height="21" as="geometry" />
        </mxCell>
        <mxCell id="rtizMYBKSLq8vMq1UdSF-534" value="register" style="rounded=0;whiteSpace=wrap;html=1;fontSize=12;align=center;" vertex="1" parent="rtizMYBKSLq8vMq1UdSF-523">
          <mxGeometry y="305.5" width="50" height="21" as="geometry" />
        </mxCell>
        <mxCell id="rtizMYBKSLq8vMq1UdSF-535" value="register" style="rounded=0;whiteSpace=wrap;html=1;fontSize=12;align=center;" vertex="1" parent="rtizMYBKSLq8vMq1UdSF-523">
          <mxGeometry y="336" width="50" height="21" as="geometry" />
        </mxCell>
        <mxCell id="rtizMYBKSLq8vMq1UdSF-536" value="register" style="rounded=0;whiteSpace=wrap;html=1;fontSize=12;align=center;" vertex="1" parent="rtizMYBKSLq8vMq1UdSF-523">
          <mxGeometry y="366" width="50" height="21" as="geometry" />
        </mxCell>
        <mxCell id="rtizMYBKSLq8vMq1UdSF-537" value="register" style="rounded=0;whiteSpace=wrap;html=1;fontSize=12;align=center;" vertex="1" parent="rtizMYBKSLq8vMq1UdSF-523">
          <mxGeometry y="396" width="50" height="21" as="geometry" />
        </mxCell>
        <mxCell id="rtizMYBKSLq8vMq1UdSF-538" value="register" style="rounded=0;whiteSpace=wrap;html=1;fontSize=12;align=center;" vertex="1" parent="rtizMYBKSLq8vMq1UdSF-523">
          <mxGeometry y="426" width="50" height="21" as="geometry" />
        </mxCell>
        <mxCell id="rtizMYBKSLq8vMq1UdSF-539" value="register" style="rounded=0;whiteSpace=wrap;html=1;fontSize=12;align=center;" vertex="1" parent="rtizMYBKSLq8vMq1UdSF-523">
          <mxGeometry y="455.5" width="50" height="21" as="geometry" />
        </mxCell>
        <mxCell id="rtizMYBKSLq8vMq1UdSF-540" value="" style="group" vertex="1" connectable="0" parent="rtizMYBKSLq8vMq1UdSF-579">
          <mxGeometry x="550" y="17.000000000000114" width="54" height="476.5" as="geometry" />
        </mxCell>
        <mxCell id="rtizMYBKSLq8vMq1UdSF-541" value="register" style="rounded=0;whiteSpace=wrap;html=1;fontSize=12;align=center;" vertex="1" parent="rtizMYBKSLq8vMq1UdSF-540">
          <mxGeometry width="50" height="21" as="geometry" />
        </mxCell>
        <mxCell id="rtizMYBKSLq8vMq1UdSF-542" value="register" style="rounded=0;whiteSpace=wrap;html=1;fontSize=12;align=center;" vertex="1" parent="rtizMYBKSLq8vMq1UdSF-540">
          <mxGeometry y="29.5" width="50" height="21" as="geometry" />
        </mxCell>
        <mxCell id="rtizMYBKSLq8vMq1UdSF-543" value="register" style="rounded=0;whiteSpace=wrap;html=1;fontSize=12;align=center;" vertex="1" parent="rtizMYBKSLq8vMq1UdSF-540">
          <mxGeometry y="62.5" width="50" height="21" as="geometry" />
        </mxCell>
        <mxCell id="rtizMYBKSLq8vMq1UdSF-544" value="register" style="rounded=0;whiteSpace=wrap;html=1;fontSize=12;align=center;" vertex="1" parent="rtizMYBKSLq8vMq1UdSF-540">
          <mxGeometry y="93" width="50" height="21" as="geometry" />
        </mxCell>
        <mxCell id="rtizMYBKSLq8vMq1UdSF-545" value="register" style="rounded=0;whiteSpace=wrap;html=1;fontSize=12;align=center;" vertex="1" parent="rtizMYBKSLq8vMq1UdSF-540">
          <mxGeometry y="123" width="50" height="21" as="geometry" />
        </mxCell>
        <mxCell id="rtizMYBKSLq8vMq1UdSF-546" value="register" style="rounded=0;whiteSpace=wrap;html=1;fontSize=12;align=center;" vertex="1" parent="rtizMYBKSLq8vMq1UdSF-540">
          <mxGeometry y="153" width="50" height="21" as="geometry" />
        </mxCell>
        <mxCell id="rtizMYBKSLq8vMq1UdSF-547" value="register" style="rounded=0;whiteSpace=wrap;html=1;fontSize=12;align=center;" vertex="1" parent="rtizMYBKSLq8vMq1UdSF-540">
          <mxGeometry y="183" width="50" height="21" as="geometry" />
        </mxCell>
        <mxCell id="rtizMYBKSLq8vMq1UdSF-548" value="register" style="rounded=0;whiteSpace=wrap;html=1;fontSize=12;align=center;" vertex="1" parent="rtizMYBKSLq8vMq1UdSF-540">
          <mxGeometry y="212.5" width="50" height="21" as="geometry" />
        </mxCell>
        <mxCell id="rtizMYBKSLq8vMq1UdSF-549" value="register" style="rounded=0;whiteSpace=wrap;html=1;fontSize=12;align=center;" vertex="1" parent="rtizMYBKSLq8vMq1UdSF-540">
          <mxGeometry y="243" width="50" height="21" as="geometry" />
        </mxCell>
        <mxCell id="rtizMYBKSLq8vMq1UdSF-550" value="register" style="rounded=0;whiteSpace=wrap;html=1;fontSize=12;align=center;" vertex="1" parent="rtizMYBKSLq8vMq1UdSF-540">
          <mxGeometry y="272.5" width="50" height="21" as="geometry" />
        </mxCell>
        <mxCell id="rtizMYBKSLq8vMq1UdSF-551" value="register" style="rounded=0;whiteSpace=wrap;html=1;fontSize=12;align=center;" vertex="1" parent="rtizMYBKSLq8vMq1UdSF-540">
          <mxGeometry y="305.5" width="50" height="21" as="geometry" />
        </mxCell>
        <mxCell id="rtizMYBKSLq8vMq1UdSF-552" value="register" style="rounded=0;whiteSpace=wrap;html=1;fontSize=12;align=center;" vertex="1" parent="rtizMYBKSLq8vMq1UdSF-540">
          <mxGeometry y="336" width="50" height="21" as="geometry" />
        </mxCell>
        <mxCell id="rtizMYBKSLq8vMq1UdSF-553" value="register" style="rounded=0;whiteSpace=wrap;html=1;fontSize=12;align=center;" vertex="1" parent="rtizMYBKSLq8vMq1UdSF-540">
          <mxGeometry y="366" width="50" height="21" as="geometry" />
        </mxCell>
        <mxCell id="rtizMYBKSLq8vMq1UdSF-554" value="register" style="rounded=0;whiteSpace=wrap;html=1;fontSize=12;align=center;" vertex="1" parent="rtizMYBKSLq8vMq1UdSF-540">
          <mxGeometry y="396" width="50" height="21" as="geometry" />
        </mxCell>
        <mxCell id="rtizMYBKSLq8vMq1UdSF-555" value="register" style="rounded=0;whiteSpace=wrap;html=1;fontSize=12;align=center;" vertex="1" parent="rtizMYBKSLq8vMq1UdSF-540">
          <mxGeometry y="426" width="50" height="21" as="geometry" />
        </mxCell>
        <mxCell id="rtizMYBKSLq8vMq1UdSF-556" value="register" style="rounded=0;whiteSpace=wrap;html=1;fontSize=12;align=center;" vertex="1" parent="rtizMYBKSLq8vMq1UdSF-540">
          <mxGeometry y="455.5" width="50" height="21" as="geometry" />
        </mxCell>
        <mxCell id="rtizMYBKSLq8vMq1UdSF-557" value="" style="endArrow=none;html=1;fontSize=12;fontColor=#000000;" edge="1" parent="rtizMYBKSLq8vMq1UdSF-579">
          <mxGeometry width="50" height="50" relative="1" as="geometry">
            <mxPoint y="42.000000000000114" as="sourcePoint" />
            <mxPoint x="650" y="42.000000000000114" as="targetPoint" />
          </mxGeometry>
        </mxCell>
        <mxCell id="rtizMYBKSLq8vMq1UdSF-558" value="" style="endArrow=none;html=1;fontSize=12;fontColor=#000000;" edge="1" parent="rtizMYBKSLq8vMq1UdSF-579">
          <mxGeometry width="50" height="50" relative="1" as="geometry">
            <mxPoint y="72.00000000000023" as="sourcePoint" />
            <mxPoint x="650" y="72.00000000000023" as="targetPoint" />
          </mxGeometry>
        </mxCell>
        <mxCell id="rtizMYBKSLq8vMq1UdSF-559" value="" style="endArrow=none;html=1;fontSize=12;fontColor=#000000;" edge="1" parent="rtizMYBKSLq8vMq1UdSF-579">
          <mxGeometry width="50" height="50" relative="1" as="geometry">
            <mxPoint x="10" y="106.00000000000023" as="sourcePoint" />
            <mxPoint x="660" y="106.00000000000023" as="targetPoint" />
          </mxGeometry>
        </mxCell>
        <mxCell id="rtizMYBKSLq8vMq1UdSF-560" value="" style="endArrow=none;html=1;fontSize=12;fontColor=#000000;" edge="1" parent="rtizMYBKSLq8vMq1UdSF-579">
          <mxGeometry width="50" height="50" relative="1" as="geometry">
            <mxPoint x="10" y="136.0000000000001" as="sourcePoint" />
            <mxPoint x="660" y="136.0000000000001" as="targetPoint" />
          </mxGeometry>
        </mxCell>
        <mxCell id="rtizMYBKSLq8vMq1UdSF-561" value="" style="endArrow=none;html=1;fontSize=12;fontColor=#000000;" edge="1" parent="rtizMYBKSLq8vMq1UdSF-579">
          <mxGeometry width="50" height="50" relative="1" as="geometry">
            <mxPoint x="20" y="166.0000000000001" as="sourcePoint" />
            <mxPoint x="670" y="166.0000000000001" as="targetPoint" />
          </mxGeometry>
        </mxCell>
        <mxCell id="rtizMYBKSLq8vMq1UdSF-562" value="" style="endArrow=none;html=1;fontSize=12;fontColor=#000000;" edge="1" parent="rtizMYBKSLq8vMq1UdSF-579">
          <mxGeometry width="50" height="50" relative="1" as="geometry">
            <mxPoint x="20" y="196.0000000000001" as="sourcePoint" />
            <mxPoint x="670" y="196.0000000000001" as="targetPoint" />
          </mxGeometry>
        </mxCell>
        <mxCell id="rtizMYBKSLq8vMq1UdSF-563" value="" style="endArrow=none;html=1;fontSize=12;fontColor=#000000;" edge="1" parent="rtizMYBKSLq8vMq1UdSF-579">
          <mxGeometry width="50" height="50" relative="1" as="geometry">
            <mxPoint x="20" y="226.0000000000001" as="sourcePoint" />
            <mxPoint x="670" y="226.0000000000001" as="targetPoint" />
          </mxGeometry>
        </mxCell>
        <mxCell id="rtizMYBKSLq8vMq1UdSF-564" value="" style="endArrow=none;html=1;fontSize=12;fontColor=#000000;" edge="1" parent="rtizMYBKSLq8vMq1UdSF-579">
          <mxGeometry width="50" height="50" relative="1" as="geometry">
            <mxPoint x="20" y="256.0000000000001" as="sourcePoint" />
            <mxPoint x="670" y="256.0000000000001" as="targetPoint" />
          </mxGeometry>
        </mxCell>
        <mxCell id="rtizMYBKSLq8vMq1UdSF-565" value="" style="endArrow=none;html=1;fontSize=12;fontColor=#000000;" edge="1" parent="rtizMYBKSLq8vMq1UdSF-579">
          <mxGeometry width="50" height="50" relative="1" as="geometry">
            <mxPoint x="20" y="286.0000000000001" as="sourcePoint" />
            <mxPoint x="670" y="286.0000000000001" as="targetPoint" />
          </mxGeometry>
        </mxCell>
        <mxCell id="rtizMYBKSLq8vMq1UdSF-566" value="" style="endArrow=none;html=1;fontSize=12;fontColor=#000000;fillColor=#e51400;strokeColor=#B20000;" edge="1" parent="rtizMYBKSLq8vMq1UdSF-579">
          <mxGeometry width="50" height="50" relative="1" as="geometry">
            <mxPoint x="20" y="316.0000000000001" as="sourcePoint" />
            <mxPoint x="670" y="316.0000000000001" as="targetPoint" />
          </mxGeometry>
        </mxCell>
        <mxCell id="rtizMYBKSLq8vMq1UdSF-567" value="" style="endArrow=none;html=1;fontSize=12;fontColor=#000000;" edge="1" parent="rtizMYBKSLq8vMq1UdSF-579">
          <mxGeometry width="50" height="50" relative="1" as="geometry">
            <mxPoint x="20" y="348.0000000000001" as="sourcePoint" />
            <mxPoint x="670" y="348.0000000000001" as="targetPoint" />
          </mxGeometry>
        </mxCell>
        <mxCell id="rtizMYBKSLq8vMq1UdSF-568" value="" style="endArrow=none;html=1;fontSize=12;fontColor=#000000;" edge="1" parent="rtizMYBKSLq8vMq1UdSF-579">
          <mxGeometry width="50" height="50" relative="1" as="geometry">
            <mxPoint x="20" y="378.0000000000001" as="sourcePoint" />
            <mxPoint x="670" y="378.0000000000001" as="targetPoint" />
          </mxGeometry>
        </mxCell>
        <mxCell id="rtizMYBKSLq8vMq1UdSF-569" value="" style="endArrow=none;html=1;fontSize=12;fontColor=#000000;" edge="1" parent="rtizMYBKSLq8vMq1UdSF-579">
          <mxGeometry width="50" height="50" relative="1" as="geometry">
            <mxPoint x="20" y="408.0000000000001" as="sourcePoint" />
            <mxPoint x="670" y="408.0000000000001" as="targetPoint" />
          </mxGeometry>
        </mxCell>
        <mxCell id="rtizMYBKSLq8vMq1UdSF-570" value="" style="endArrow=none;html=1;fontSize=12;fontColor=#000000;" edge="1" parent="rtizMYBKSLq8vMq1UdSF-579">
          <mxGeometry width="50" height="50" relative="1" as="geometry">
            <mxPoint x="20" y="438.0000000000001" as="sourcePoint" />
            <mxPoint x="670" y="438.0000000000001" as="targetPoint" />
          </mxGeometry>
        </mxCell>
        <mxCell id="rtizMYBKSLq8vMq1UdSF-571" value="" style="endArrow=none;html=1;fontSize=12;fontColor=#000000;" edge="1" parent="rtizMYBKSLq8vMq1UdSF-579">
          <mxGeometry width="50" height="50" relative="1" as="geometry">
            <mxPoint x="20" y="468.0000000000001" as="sourcePoint" />
            <mxPoint x="670" y="468.0000000000001" as="targetPoint" />
          </mxGeometry>
        </mxCell>
        <mxCell id="rtizMYBKSLq8vMq1UdSF-572" value="" style="endArrow=none;html=1;fontSize=12;fontColor=#000000;" edge="1" parent="rtizMYBKSLq8vMq1UdSF-579">
          <mxGeometry width="50" height="50" relative="1" as="geometry">
            <mxPoint x="120" y="1.1368683772161603e-13" as="sourcePoint" />
            <mxPoint x="120" y="522.857142857143" as="targetPoint" />
          </mxGeometry>
        </mxCell>
        <mxCell id="rtizMYBKSLq8vMq1UdSF-573" value="" style="endArrow=none;html=1;fontSize=12;fontColor=#000000;" edge="1" parent="rtizMYBKSLq8vMq1UdSF-579">
          <mxGeometry width="50" height="50" relative="1" as="geometry">
            <mxPoint x="190" as="sourcePoint" />
            <mxPoint x="190" y="522.857142857143" as="targetPoint" />
          </mxGeometry>
        </mxCell>
        <mxCell id="rtizMYBKSLq8vMq1UdSF-574" value="" style="endArrow=none;html=1;fontSize=12;fontColor=#000000;" edge="1" parent="rtizMYBKSLq8vMq1UdSF-579">
          <mxGeometry width="50" height="50" relative="1" as="geometry">
            <mxPoint x="260" as="sourcePoint" />
            <mxPoint x="260" y="522.857142857143" as="targetPoint" />
          </mxGeometry>
        </mxCell>
        <mxCell id="rtizMYBKSLq8vMq1UdSF-575" value="" style="endArrow=none;html=1;fontSize=12;fontColor=#000000;fillColor=#e51400;strokeColor=#B20000;" edge="1" parent="rtizMYBKSLq8vMq1UdSF-579">
          <mxGeometry width="50" height="50" relative="1" as="geometry">
            <mxPoint x="330" as="sourcePoint" />
            <mxPoint x="330" y="522.857142857143" as="targetPoint" />
          </mxGeometry>
        </mxCell>
        <mxCell id="rtizMYBKSLq8vMq1UdSF-576" value="" style="endArrow=none;html=1;fontSize=12;fontColor=#000000;" edge="1" parent="rtizMYBKSLq8vMq1UdSF-579">
          <mxGeometry width="50" height="50" relative="1" as="geometry">
            <mxPoint x="400" as="sourcePoint" />
            <mxPoint x="400" y="522.857142857143" as="targetPoint" />
          </mxGeometry>
        </mxCell>
        <mxCell id="rtizMYBKSLq8vMq1UdSF-577" value="" style="endArrow=none;html=1;fontSize=12;fontColor=#000000;" edge="1" parent="rtizMYBKSLq8vMq1UdSF-579">
          <mxGeometry width="50" height="50" relative="1" as="geometry">
            <mxPoint x="470" as="sourcePoint" />
            <mxPoint x="470" y="522.857142857143" as="targetPoint" />
          </mxGeometry>
        </mxCell>
        <mxCell id="rtizMYBKSLq8vMq1UdSF-578" value="" style="endArrow=none;html=1;fontSize=12;fontColor=#000000;" edge="1" parent="rtizMYBKSLq8vMq1UdSF-579">
          <mxGeometry width="50" height="50" relative="1" as="geometry">
            <mxPoint x="530" as="sourcePoint" />
            <mxPoint x="530" y="522.857142857143" as="targetPoint" />
          </mxGeometry>
        </mxCell>
        <mxCell id="rtizMYBKSLq8vMq1UdSF-580" value="16 x 16 LATCH MATRIX" style="text;html=1;align=center;verticalAlign=middle;resizable=0;points=[];autosize=1;fontSize=30;fontColor=#FF0000;fontStyle=4" vertex="1" parent="1">
          <mxGeometry x="1000" y="30" width="340" height="40" as="geometry" />
        </mxCell>
        <mxCell id="rtizMYBKSLq8vMq1UdSF-581" value="" style="endArrow=none;html=1;fontSize=12;fontColor=#000000;fillColor=#e3c800;strokeColor=#B09500;" edge="1" parent="1">
          <mxGeometry width="50" height="50" relative="1" as="geometry">
            <mxPoint x="900" y="720" as="sourcePoint" />
            <mxPoint x="1460" y="720" as="targetPoint" />
          </mxGeometry>
        </mxCell>
        <mxCell id="rtizMYBKSLq8vMq1UdSF-582" value="" style="endArrow=none;html=1;fontSize=12;fontColor=#000000;fillColor=#e3c800;strokeColor=#B09500;" edge="1" parent="1">
          <mxGeometry width="50" height="50" relative="1" as="geometry">
            <mxPoint x="950" y="660" as="sourcePoint" />
            <mxPoint x="950" y="1100" as="targetPoint" />
          </mxGeometry>
        </mxCell>
        <mxCell id="rtizMYBKSLq8vMq1UdSF-583" value="" style="endArrow=none;html=1;fontSize=12;fontColor=#000000;fillColor=#e3c800;strokeColor=#B09500;" edge="1" parent="1">
          <mxGeometry width="50" height="50" relative="1" as="geometry">
            <mxPoint x="1020" y="760" as="sourcePoint" />
            <mxPoint x="1460" y="760" as="targetPoint" />
          </mxGeometry>
        </mxCell>
        <mxCell id="rtizMYBKSLq8vMq1UdSF-584" value="" style="endArrow=none;html=1;fontSize=12;fontColor=#000000;fillColor=#e3c800;strokeColor=#B09500;" edge="1" parent="1">
          <mxGeometry width="50" height="50" relative="1" as="geometry">
            <mxPoint x="1010" y="730" as="sourcePoint" />
            <mxPoint x="1010" y="1020" as="targetPoint" />
          </mxGeometry>
        </mxCell>
        <mxCell id="rtizMYBKSLq8vMq1UdSF-591" style="edgeStyle=elbowEdgeStyle;rounded=0;jumpStyle=arc;orthogonalLoop=1;jettySize=auto;elbow=vertical;html=1;exitX=1;exitY=0.5;exitDx=0;exitDy=0;entryX=0.7;entryY=0;entryDx=0;entryDy=0;entryPerimeter=0;endArrow=none;endFill=0;fontSize=12;fontColor=#000000;" edge="1" parent="1" source="rtizMYBKSLq8vMq1UdSF-586" target="rtizMYBKSLq8vMq1UdSF-590">
          <mxGeometry relative="1" as="geometry" />
        </mxCell>
        <mxCell id="rtizMYBKSLq8vMq1UdSF-599" style="edgeStyle=elbowEdgeStyle;rounded=0;jumpStyle=arc;orthogonalLoop=1;jettySize=auto;elbow=vertical;html=1;exitX=0;exitY=0.75;exitDx=0;exitDy=0;entryX=1;entryY=0.5;entryDx=0;entryDy=0;entryPerimeter=0;endArrow=none;endFill=0;fontSize=12;fontColor=#000000;" edge="1" parent="1" source="rtizMYBKSLq8vMq1UdSF-586" target="rtizMYBKSLq8vMq1UdSF-598">
          <mxGeometry relative="1" as="geometry">
            <Array as="points">
              <mxPoint x="1230" y="838" />
            </Array>
          </mxGeometry>
        </mxCell>
        <mxCell id="rtizMYBKSLq8vMq1UdSF-610" style="edgeStyle=elbowEdgeStyle;rounded=0;jumpStyle=arc;orthogonalLoop=1;jettySize=auto;elbow=vertical;html=1;exitX=0;exitY=0.25;exitDx=0;exitDy=0;endArrow=none;endFill=0;fontSize=12;fontColor=#000000;" edge="1" parent="1" source="rtizMYBKSLq8vMq1UdSF-586">
          <mxGeometry relative="1" as="geometry">
            <mxPoint x="1210" y="760" as="targetPoint" />
            <Array as="points">
              <mxPoint x="1210" y="813" />
            </Array>
          </mxGeometry>
        </mxCell>
        <mxCell id="rtizMYBKSLq8vMq1UdSF-586" value="Gate Latch" style="rounded=0;whiteSpace=wrap;html=1;fontSize=12;fontColor=#000000;align=center;" vertex="1" parent="1">
          <mxGeometry x="1260" y="800" width="70" height="50" as="geometry" />
        </mxCell>
        <mxCell id="rtizMYBKSLq8vMq1UdSF-587" value="Date Input" style="text;html=1;align=center;verticalAlign=middle;resizable=0;points=[];autosize=1;fontSize=12;fontColor=#000000;" vertex="1" parent="1">
          <mxGeometry x="1030" y="770" width="70" height="20" as="geometry" />
        </mxCell>
        <mxCell id="rtizMYBKSLq8vMq1UdSF-592" style="edgeStyle=elbowEdgeStyle;rounded=0;jumpStyle=arc;orthogonalLoop=1;jettySize=auto;elbow=vertical;html=1;exitX=0.7;exitY=1;exitDx=0;exitDy=0;exitPerimeter=0;endArrow=none;endFill=0;fontSize=12;fontColor=#000000;" edge="1" parent="1" source="rtizMYBKSLq8vMq1UdSF-590">
          <mxGeometry relative="1" as="geometry">
            <mxPoint x="1460" y="760" as="targetPoint" />
          </mxGeometry>
        </mxCell>
        <mxCell id="rtizMYBKSLq8vMq1UdSF-590" value="" style="verticalLabelPosition=bottom;shadow=0;dashed=0;align=center;html=1;verticalAlign=top;shape=mxgraph.electrical.transistors.npn_transistor_1;rotation=-90;" vertex="1" parent="1">
          <mxGeometry x="1380" y="810" width="110" height="50" as="geometry" />
        </mxCell>
        <mxCell id="rtizMYBKSLq8vMq1UdSF-597" style="edgeStyle=elbowEdgeStyle;rounded=0;jumpStyle=arc;orthogonalLoop=1;jettySize=auto;elbow=vertical;html=1;exitX=1;exitY=0.5;exitDx=0;exitDy=0;exitPerimeter=0;endArrow=none;endFill=0;fontSize=12;fontColor=#000000;entryX=0;entryY=0.5;entryDx=0;entryDy=0;entryPerimeter=0;" edge="1" parent="1" source="rtizMYBKSLq8vMq1UdSF-596" target="rtizMYBKSLq8vMq1UdSF-590">
          <mxGeometry relative="1" as="geometry">
            <mxPoint x="1440" y="1039.857142857143" as="targetPoint" />
            <Array as="points">
              <mxPoint x="1430" y="1040" />
            </Array>
          </mxGeometry>
        </mxCell>
        <mxCell id="rtizMYBKSLq8vMq1UdSF-605" style="edgeStyle=elbowEdgeStyle;rounded=0;jumpStyle=arc;orthogonalLoop=1;jettySize=auto;elbow=vertical;html=1;exitX=0;exitY=0.25;exitDx=0;exitDy=0;exitPerimeter=0;endArrow=none;endFill=0;fontSize=12;fontColor=#000000;" edge="1" parent="1" source="rtizMYBKSLq8vMq1UdSF-596">
          <mxGeometry relative="1" as="geometry">
            <mxPoint x="950" y="1025.5714285714287" as="targetPoint" />
          </mxGeometry>
        </mxCell>
        <mxCell id="rtizMYBKSLq8vMq1UdSF-607" style="edgeStyle=elbowEdgeStyle;rounded=0;jumpStyle=arc;orthogonalLoop=1;jettySize=auto;elbow=vertical;html=1;exitX=0;exitY=0.75;exitDx=0;exitDy=0;exitPerimeter=0;endArrow=none;endFill=0;fontSize=12;fontColor=#000000;" edge="1" parent="1" source="rtizMYBKSLq8vMq1UdSF-596">
          <mxGeometry relative="1" as="geometry">
            <mxPoint x="1080" y="1055.5714285714287" as="targetPoint" />
          </mxGeometry>
        </mxCell>
        <mxCell id="rtizMYBKSLq8vMq1UdSF-596" value="" style="verticalLabelPosition=bottom;shadow=0;dashed=0;align=center;html=1;verticalAlign=top;shape=mxgraph.electrical.logic_gates.logic_gate;operation=and;negating=1;fontSize=12;fontColor=#000000;" vertex="1" parent="1">
          <mxGeometry x="1245" y="1010" width="100" height="60" as="geometry" />
        </mxCell>
        <mxCell id="rtizMYBKSLq8vMq1UdSF-604" style="edgeStyle=elbowEdgeStyle;rounded=0;jumpStyle=arc;orthogonalLoop=1;jettySize=auto;elbow=vertical;html=1;exitX=0;exitY=0.75;exitDx=0;exitDy=0;exitPerimeter=0;entryX=0;entryY=0.25;entryDx=0;entryDy=0;entryPerimeter=0;endArrow=none;endFill=0;fontSize=12;fontColor=#000000;" edge="1" parent="1" source="rtizMYBKSLq8vMq1UdSF-598" target="rtizMYBKSLq8vMq1UdSF-596">
          <mxGeometry relative="1" as="geometry" />
        </mxCell>
        <mxCell id="rtizMYBKSLq8vMq1UdSF-609" style="edgeStyle=elbowEdgeStyle;rounded=0;jumpStyle=arc;orthogonalLoop=1;jettySize=auto;elbow=vertical;html=1;exitX=0;exitY=0.25;exitDx=0;exitDy=0;exitPerimeter=0;endArrow=none;endFill=0;fontSize=12;fontColor=#000000;" edge="1" parent="1" source="rtizMYBKSLq8vMq1UdSF-598">
          <mxGeometry relative="1" as="geometry">
            <mxPoint x="1030" y="875.5714285714287" as="targetPoint" />
          </mxGeometry>
        </mxCell>
        <mxCell id="rtizMYBKSLq8vMq1UdSF-598" value="" style="verticalLabelPosition=bottom;shadow=0;dashed=0;align=center;html=1;verticalAlign=top;shape=mxgraph.electrical.logic_gates.logic_gate;operation=and;negating=1;fontSize=12;fontColor=#000000;" vertex="1" parent="1">
          <mxGeometry x="1100" y="860" width="100" height="60" as="geometry" />
        </mxCell>
        <mxCell id="rtizMYBKSLq8vMq1UdSF-601" value="Write Enable" style="text;html=1;align=center;verticalAlign=middle;resizable=0;points=[];autosize=1;fontSize=12;fontColor=#000000;" vertex="1" parent="1">
          <mxGeometry x="1020" y="850" width="80" height="20" as="geometry" />
        </mxCell>
        <mxCell id="rtizMYBKSLq8vMq1UdSF-608" value="Read Enable" style="text;html=1;align=center;verticalAlign=middle;resizable=0;points=[];autosize=1;fontSize=12;fontColor=#000000;" vertex="1" parent="1">
          <mxGeometry x="1090" y="1070" width="80" height="20" as="geometry" />
        </mxCell>
      </root>
    </mxGraphModel>
  </diagram>
</mxfile>
